<svg width="151" height="150" viewBox="0 0 151 150" fill="none" xmlns="http://www.w3.org/2000/svg">
<circle cx="75.5" cy="75" r="73" stroke="#00C7B1" stroke-width="4"/>
<rect x="63" y="100" width="8.33333" height="8.33333" rx="4.16667" fill="#B2ABA4"/>
<path d="M60.9167 64.5833C58.6083 64.5833 56.75 66.4416 56.75 68.75V81.25C56.75 83.5583 58.6083 85.4166 60.9167 85.4166H96.3333L106.75 93.75V85.4166H110.917C113.225 85.4166 115.083 83.5583 115.083 81.25V68.75C115.083 66.4416 113.225 64.5833 110.917 64.5833H60.9167Z" stroke="#12C4B0" stroke-width="4.16667"/>
<path d="M104.667 79.1666C106.968 79.1666 108.833 77.3012 108.833 75C108.833 72.6988 106.968 70.8333 104.667 70.8333C102.365 70.8333 100.5 72.6988 100.5 75C100.5 77.3012 102.365 79.1666 104.667 79.1666Z" fill="#F71110"/>
<path d="M92.1667 79.1666C94.4679 79.1666 96.3333 77.3012 96.3333 75C96.3333 72.6988 94.4679 70.8333 92.1667 70.8333C89.8655 70.8333 88 72.6988 88 75C88 77.3012 89.8655 79.1666 92.1667 79.1666Z" fill="#F71110"/>
<path d="M79.6667 79.1666C81.9679 79.1666 83.8333 77.3012 83.8333 75C83.8333 72.6988 81.9679 70.8333 79.6667 70.8333C77.3655 70.8333 75.5 72.6988 75.5 75C75.5 77.3012 77.3655 79.1666 79.6667 79.1666Z" fill="#F71110"/>
<path d="M67.1667 79.1666C69.4679 79.1666 71.3333 77.3012 71.3333 75C71.3333 72.6988 69.4679 70.8333 67.1667 70.8333C64.8655 70.8333 63 72.6988 63 75C63 77.3012 64.8655 79.1666 67.1667 79.1666Z" fill="#F71110"/>
<path fill-rule="evenodd" clip-rule="evenodd" d="M54.6665 37.5H79.6665C84.2689 37.5 87.9998 41.2309 87.9998 45.8333V58.3333H92.1665V45.8333C92.1665 38.9298 86.5701 33.3333 79.6665 33.3333H54.6665C47.7629 33.3333 42.1665 38.9298 42.1665 45.8333V104.167C42.1665 111.07 47.7629 116.667 54.6665 116.667H79.6665C86.5701 116.667 92.1665 111.07 92.1665 104.167V91.6666H87.9998V104.167C87.9998 108.769 84.2689 112.5 79.6665 112.5H54.6665C50.0641 112.5 46.3332 108.769 46.3332 104.167V45.8333C46.3332 41.2309 50.0641 37.5 54.6665 37.5Z" fill="#B2ABA4"/>
</svg>
