<svg width="150" height="150" viewBox="0 0 150 150" fill="none" xmlns="http://www.w3.org/2000/svg">
<path d="M83.875 49.25H52.25V52.125H83.875V49.25Z" fill="#B2ABA4"/>
<path d="M83.875 55H43.625V57.875H83.875V55Z" fill="#B2ABA4"/>
<path d="M49.375 49.25H43.625V52.125H49.375V49.25Z" fill="#B2ABA4"/>
<path fill-rule="evenodd" clip-rule="evenodd" d="M112.625 32H49.375C48.6125 32 47.8812 32.3029 47.3421 32.8421C46.8029 33.3812 46.5 34.1125 46.5 34.875V40.625H42.1875C40.282 40.6273 38.4551 41.3853 37.1077 42.7327C35.7603 44.0801 35.0023 45.907 35 47.8125V95.25C35 96.0125 35.3029 96.7438 35.8421 97.283C36.3812 97.8221 37.1125 98.125 37.875 98.125H46.5H49.375H71.6429V95.25H37.875V47.8125C37.875 46.6688 38.3294 45.5719 39.1381 44.7631C39.9469 43.9544 41.0438 43.5 42.1875 43.5H91.0999C90.1486 44.7368 89.6303 46.2521 89.625 47.8125V95.25H87.117V98.125H89.625C90.3875 98.125 91.1188 97.8221 91.658 97.283C92.1972 96.7438 92.5 96.0125 92.5 95.25V62.1875H108.313C110.218 62.1852 112.045 61.4272 113.392 60.0798C114.74 58.7324 115.498 56.9056 115.5 55V34.875C115.5 34.1125 115.197 33.3812 114.658 32.8421C114.119 32.3029 113.388 32 112.625 32ZM92.5 47.8125V59.3125H102.563C101.627 58.0697 101.122 56.5556 101.125 55V47.8125C101.125 47.2462 101.014 46.6854 100.797 46.1622C100.58 45.639 100.262 45.1636 99.8619 44.7631C99.4615 44.3627 98.9861 44.045 98.4629 43.8283C97.9397 43.6116 97.3789 43.5 96.8125 43.5C96.2462 43.5 95.6854 43.6116 95.1622 43.8283C94.639 44.045 94.1636 44.3627 93.7632 44.7631C93.3627 45.1636 93.045 45.639 92.8283 46.1622C92.6116 46.6854 92.5 47.2462 92.5 47.8125ZM111.362 58.0494C112.171 57.2407 112.625 56.1438 112.625 55V34.875H49.375V40.625H96.8125C97.7567 40.6241 98.6918 40.8093 99.5642 41.1702C100.437 41.5311 101.229 42.0605 101.897 42.7281C102.565 43.3957 103.094 44.1884 103.455 45.0609C103.816 45.9333 104.001 46.8684 104 47.8125V55C104 56.1438 104.454 57.2407 105.263 58.0494C106.072 58.8582 107.169 59.3125 108.313 59.3125C109.456 59.3125 110.553 58.8582 111.362 58.0494Z" fill="#B2ABA4"/>
<path d="M56.5625 63.625C54.0037 63.625 51.5024 64.3838 49.3748 65.8054C47.2473 67.227 45.589 69.2475 44.6098 71.6115C43.6306 73.9756 43.3744 76.5769 43.8736 79.0865C44.3728 81.5961 45.605 83.9014 47.4143 85.7107C49.2237 87.52 51.5289 88.7522 54.0385 89.2514C56.5482 89.7506 59.1495 89.4944 61.5135 88.5152C63.8775 87.536 65.8981 85.8778 67.3197 83.7502C68.7413 81.6226 69.5 79.1213 69.5 76.5625C69.4962 73.1324 68.1319 69.8439 65.7065 67.4185C63.2811 64.9931 59.9926 63.6288 56.5625 63.625ZM56.5625 86.625C54.5723 86.625 52.6269 86.0348 50.9721 84.9292C49.3173 83.8235 48.0276 82.2519 47.266 80.4133C46.5044 78.5746 46.3051 76.5513 46.6934 74.5994C47.0816 72.6475 48.04 70.8545 49.4472 69.4472C50.8545 68.04 52.6475 67.0816 54.5994 66.6933C56.5514 66.3051 58.5746 66.5044 60.4133 67.266C62.252 68.0276 63.8235 69.3173 64.9292 70.9721C66.0349 72.6268 66.625 74.5723 66.625 76.5625C66.6216 79.2302 65.5603 81.7876 63.674 83.674C61.7877 85.5603 59.2302 86.6216 56.5625 86.625Z" fill="#00C7B1"/>
<path d="M55.125 72.25H58C58.3813 72.25 58.7469 72.4014 59.0165 72.671C59.2861 72.9406 59.4375 73.3062 59.4375 73.6875H62.3125C62.3125 72.5438 61.8582 71.4468 61.0494 70.6381C60.2407 69.8293 59.1438 69.375 58 69.375V67.9375H55.125V69.375C53.9813 69.375 52.8844 69.8293 52.0756 70.6381C51.2669 71.4468 50.8125 72.5438 50.8125 73.6875C50.8125 74.8312 51.2669 75.9281 52.0756 76.7369C52.8844 77.5456 53.9813 78 55.125 78H58C58.3813 78 58.7469 78.1514 59.0165 78.421C59.2861 78.6906 59.4375 79.0562 59.4375 79.4375C59.4375 79.8187 59.2861 80.1844 59.0165 80.454C58.7469 80.7235 58.3813 80.875 58 80.875H55.125C54.7438 80.875 54.3781 80.7235 54.1085 80.454C53.839 80.1844 53.6875 79.8187 53.6875 79.4375H50.8125C50.8125 80.5812 51.2669 81.6781 52.0756 82.4869C52.8844 83.2956 53.9813 83.75 55.125 83.75V85.1875H58V83.75C59.1438 83.75 60.2407 83.2956 61.0494 82.4869C61.8582 81.6781 62.3125 80.5812 62.3125 79.4375C62.3125 78.2937 61.8582 77.1968 61.0494 76.3881C60.2407 75.5793 59.1438 75.125 58 75.125H55.125C54.7438 75.125 54.3781 74.9735 54.1085 74.704C53.839 74.4344 53.6875 74.0687 53.6875 73.6875C53.6875 73.3062 53.839 72.9406 54.1085 72.671C54.3781 72.4014 54.7438 72.25 55.125 72.25Z" fill="#00C7B1"/>
<path d="M46.25 105.931C46.2476 106.875 46.4325 107.81 46.7939 108.683C47.1554 109.555 47.6863 110.348 48.356 111.014L54.875 117.533C55.4154 118.07 56.1457 118.373 56.9077 118.375H78.4242C78.9577 118.378 79.4814 118.231 79.9359 117.952C80.3904 117.672 80.7576 117.271 80.9959 116.794L86.1967 106.391C86.3388 106.09 86.4278 105.768 86.4598 105.438H86.5001V98.25V95.375V85.3125C86.5001 83.4063 85.7428 81.5781 84.3949 80.2302C83.047 78.8823 81.2188 78.125 79.3126 78.125C77.4063 78.125 75.5781 78.8823 74.2302 80.2302C72.8823 81.5781 72.125 83.4063 72.125 85.3125V95.375V98.25H73.5625C73.9438 98.25 74.3094 98.0986 74.579 97.829C74.8486 97.5594 75 97.1938 75 96.8125V85.3125C75 84.1688 75.4544 83.0719 76.2632 82.2631C77.0719 81.4544 78.1688 81 79.3126 81C80.4563 81 81.5532 81.4544 82.3619 82.2631C83.1707 83.0719 83.6251 84.1688 83.6251 85.3125V105.098L78.4242 115.5H56.9077L50.3886 108.981C49.9867 108.581 49.668 108.106 49.4511 107.582C49.2342 107.059 49.1234 106.497 49.125 105.931V98.75H46.25V105.931Z" fill="#FF0000"/>
<circle cx="75" cy="75" r="73" stroke="#00C7B1" stroke-width="4"/>
</svg>
