<svg width="151" height="150" viewBox="0 0 151 150" fill="none" xmlns="http://www.w3.org/2000/svg">
<path d="M103.068 101.067H53.6008C50.6787 101.067 48.3008 98.689 48.3008 95.7669V60.4336C48.3008 57.5115 50.6787 55.1335 53.6008 55.1335H103.068C105.99 55.1335 108.368 57.5115 108.368 60.4336V71.0336H104.834V60.4336C104.834 59.4601 104.041 58.6669 103.068 58.6669H53.6008C52.6274 58.6669 51.8341 59.4601 51.8341 60.4336V95.7669C51.8341 96.7404 52.6274 97.5336 53.6008 97.5336H103.068C104.041 97.5336 104.834 96.7404 104.834 95.7669V81.6336H108.368V95.7669C108.368 98.689 105.99 101.067 103.068 101.067Z" fill="#B2ABA4"/>
<path d="M108.366 74.5667H104.833V78.1H108.366V74.5667Z" fill="#B2ABA4"/>
<path d="M78.3336 94.0002C69.5674 94.0002 62.4336 86.8664 62.4336 78.1002C62.4336 69.334 69.5674 62.2002 78.3336 62.2002C87.0998 62.2002 94.2336 69.334 94.2336 78.1002C94.2336 86.8664 87.0998 94.0002 78.3336 94.0002ZM78.3336 65.7335C71.5143 65.7335 65.9669 71.2809 65.9669 78.1002C65.9669 84.9196 71.5143 90.4669 78.3336 90.4669C85.153 90.4669 90.7003 84.9196 90.7003 78.1002C90.7003 71.2809 85.153 65.7335 78.3336 65.7335Z" fill="#B2ABA4"/>
<path d="M78.3333 86.9333C73.4626 86.9333 69.5 82.9707 69.5 78.0999C69.5 73.2292 73.4626 69.2666 78.3333 69.2666C83.2041 69.2666 87.1667 73.2292 87.1667 78.0999C87.1667 82.9707 83.2041 86.9333 78.3333 86.9333ZM78.3333 72.7999C75.4113 72.7999 73.0333 75.1779 73.0333 78.0999C73.0333 81.022 75.4113 83.4 78.3333 83.4C81.2554 83.4 83.6334 81.022 83.6334 78.0999C83.6334 75.1779 81.2554 72.7999 78.3333 72.7999Z" fill="#FF0000"/>
<path d="M99.5333 62.2002H96V65.7335H99.5333V62.2002Z" fill="#B2ABA4"/>
<path d="M71.2661 58.6664H60.6661C59.6909 58.6664 58.8994 57.875 58.8994 56.8998V49.8331C58.8994 48.8579 59.6909 48.0664 60.6661 48.0664H71.2661C72.2413 48.0664 73.0328 48.8579 73.0328 49.8331V56.8998C73.0328 57.875 72.2413 58.6664 71.2661 58.6664ZM62.4328 55.1331H69.4994V51.5997H62.4328V55.1331Z" fill="#B2ABA4"/>
<path d="M62.4339 90.4668H55.3672V94.0001H62.4339V90.4668Z" fill="#B2ABA4"/>
<path d="M39.4659 55.1332C38.4907 55.1332 37.6992 54.3418 37.6992 53.3666V46.2999C37.6992 45.3247 38.4907 44.5332 39.4659 44.5332C40.4411 44.5332 41.2326 45.3247 41.2326 46.2999V53.3666C41.2326 54.3418 40.4411 55.1332 39.4659 55.1332Z" fill="#00C7B1"/>
<path d="M43.0003 51.5997H35.9337C34.9585 51.5997 34.167 50.8083 34.167 49.8331C34.167 48.8579 34.9585 48.0664 35.9337 48.0664H43.0003C43.9755 48.0664 44.767 48.8579 44.767 49.8331C44.767 50.8083 43.9755 51.5997 43.0003 51.5997Z" fill="#00C7B1"/>
<path d="M101.301 51.6C100.326 51.6 99.5342 50.8085 99.5342 49.8333V42.7667C99.5342 41.7915 100.326 41 101.301 41C102.276 41 103.068 41.7915 103.068 42.7667V49.8333C103.068 50.8085 102.276 51.6 101.301 51.6Z" fill="#00C7B1"/>
<path d="M104.833 48.0665H97.7667C96.7915 48.0665 96 47.2751 96 46.2999C96 45.3247 96.7915 44.5332 97.7667 44.5332H104.833C105.809 44.5332 106.6 45.3247 106.6 46.2999C106.6 47.2751 105.809 48.0665 104.833 48.0665Z" fill="#00C7B1"/>
<path d="M37.7003 79.8669C36.7251 79.8669 35.9336 79.0754 35.9336 78.1002V71.0335C35.9336 70.0583 36.7251 69.2668 37.7003 69.2668C38.6755 69.2668 39.4669 70.0583 39.4669 71.0335V78.1002C39.4669 79.0754 38.6755 79.8669 37.7003 79.8669Z" fill="#00C7B1"/>
<path d="M41.2328 76.3334H34.1661C33.1909 76.3334 32.3994 75.5419 32.3994 74.5667C32.3994 73.5915 33.1909 72.8 34.1661 72.8H41.2328C42.208 72.8 42.9994 73.5915 42.9994 74.5667C42.9994 75.5419 42.208 76.3334 41.2328 76.3334Z" fill="#00C7B1"/>
<path d="M23.5667 67.4998C19.6694 67.4998 16.5 64.3304 16.5 60.4331C16.5 56.5359 19.6694 53.3665 23.5667 53.3665C27.4639 53.3665 30.6334 56.5359 30.6334 60.4331C30.6334 64.3304 27.4639 67.4998 23.5667 67.4998ZM23.5667 56.8998C21.618 56.8998 20.0333 58.4845 20.0333 60.4331C20.0333 62.3818 21.618 63.9665 23.5667 63.9665C25.5153 63.9665 27.1 62.3818 27.1 60.4331C27.1 58.4845 25.5153 56.8998 23.5667 56.8998Z" fill="#B2ABA4"/>
<path d="M85.4 108.133H71.2667C70.2915 108.133 69.5 107.342 69.5 106.367V99.3001C69.5 98.3249 70.2915 97.5334 71.2667 97.5334H85.4C86.3752 97.5334 87.1667 98.3249 87.1667 99.3001V106.367C87.1667 107.342 86.3752 108.133 85.4 108.133ZM73.0333 104.6H83.6334V101.067H73.0333V104.6Z" fill="#B2ABA4"/>
<path d="M56.0001 146L53.2865 145C52.6417 145 51 144 50.5 144C50.1891 143.435 48.6535 144.012 48.9997 143.467L73.3117 105.416C73.635 104.909 74.1968 104.6 74.801 104.6H81.8677C82.5125 104.6 83.1061 104.951 83.4153 105.517C83.7262 106.082 83.7032 106.771 83.357 107.317L58.6236 146.184C58.3003 146.691 56.6043 146 56.0001 146ZM53.2865 143.467H56.1644L78.6488 108.133H75.7709L53.2865 143.467Z" fill="#B2ABA4"/>
<path d="M76.5659 118.734H65.9659C64.9907 118.734 64.1992 117.942 64.1992 116.967C64.1992 115.992 64.9907 115.2 65.9659 115.2H76.5659C77.5411 115.2 78.3326 115.992 78.3326 116.967C78.3326 117.942 77.5411 118.734 76.5659 118.734Z" fill="#B2ABA4"/>
<path d="M69.4995 131.1H58.8995C57.9243 131.1 57.1328 130.309 57.1328 129.333C57.1328 128.358 57.9243 127.567 58.8995 127.567H69.4995C70.4747 127.567 71.2662 128.358 71.2662 129.333C71.2662 130.309 70.4747 131.1 69.4995 131.1Z" fill="#B2ABA4"/>
<circle cx="75.5" cy="75" r="73" stroke="#00C7B1" stroke-width="4"/>
</svg>
