<svg width="179" height="180" viewBox="0 0 179 180" fill="none" xmlns="http://www.w3.org/2000/svg">
<rect x="0.634277" y="160.469" width="107.42" height="19.5309" fill="url(#paint0_radial_476_8900)"/>
<rect x="70.9453" y="158.516" width="107.42" height="21.484" fill="url(#paint1_radial_476_8900)"/>
<path d="M38.5904 171.037C37.5357 170.998 36.6236 170.922 35.6373 170.73C33.6999 170.348 33.0534 169.43 33.8796 167.639C35.2252 164.711 37.2389 162.283 39.649 160.188C40.397 159.539 40.3638 158.854 40.4673 157.924C40.8032 154.828 41.106 151.705 41.4107 148.639C42.1958 140.758 43.229 132.903 44.1801 125.038C44.2641 124.35 44.4379 123.669 44.643 123.009C44.8344 122.376 45.1645 121.759 45.9535 121.808C46.7172 121.852 47.2934 122.345 47.4828 123.054C47.7855 124.188 47.9027 125.343 47.8168 126.552C47.2621 134.467 45.8344 142.29 45.2973 150.211C45.1039 153.051 44.477 155.856 44.4926 158.709C44.4985 159.541 44.8793 160.051 45.6703 160.424C48.4945 161.76 50.7913 163.719 52.4222 166.428C52.9261 167.436 53.1839 167.859 53.4807 168.84C53.8889 170.184 53.4573 170.73 52.0628 170.834C49.6136 171.023 47.2348 171.096 44.7875 171.094C43.9048 171.09 39.649 171.076 38.5904 171.037Z" fill="#00C7B1"/>
<path d="M79.8974 167.623C79.8153 167.424 79.6708 167.26 79.5263 167.101C78.7665 166.289 77.872 165.609 76.8916 165.094C76.7392 164.988 76.583 164.893 76.4131 164.809C72.5069 162.859 68.3956 161.4 64.0246 161.1C62.3469 160.986 61.8879 160.418 61.6751 158.9C60.7278 152.135 60.302 145.352 60.5598 138.528C60.5598 134.663 60.5657 130.799 60.554 126.936C60.5501 126.403 60.4993 125.862 60.3841 125.344C60.1009 124.141 59.2943 123.432 58.0736 123.548C56.8412 123.667 56.9759 124.755 56.8744 125.665C56.4271 129.719 56.8509 133.79 56.6205 137.846C56.2611 144.078 56.6459 150.264 57.2845 156.432C57.4857 158.381 57.7962 161.471 58.0365 163.414C58.1009 163.951 58.3275 166.113 58.5697 167.81C58.7376 168.953 58.9564 169.92 58.9564 169.92C58.9564 169.92 59.39 170.59 61.7297 170.547V170.549C61.7297 170.549 68.2413 171.037 72.3389 170.885C73.292 170.848 75.4658 170.697 77.2138 170.228C77.6923 170.099 78.1513 169.896 78.5986 169.672C78.997 169.471 79.3896 169.232 79.663 168.879C79.9364 168.525 80.0673 168.033 79.8974 167.623Z" fill="#00C7B1"/>
<path d="M34.9438 64.1188C34.9438 61.8141 36.8266 60.1403 38.9223 60.1403H61.9492C64.0409 60.1403 65.9276 61.8141 65.9276 64.1188V139.902C65.9276 141.992 64.0409 143.877 61.9492 143.877H38.9223C36.8266 143.877 34.9438 141.992 34.9438 139.902V64.1188ZM33.686 18.2759C33.686 9.06123 41.016 1.52429 50.2228 1.52429C59.4394 1.52429 66.9705 9.06123 66.9705 18.2759C66.9705 27.4867 59.4394 34.8127 50.2228 34.8127C41.016 34.8127 33.686 27.4867 33.686 18.2759Z" fill="white"/>
<path d="M34.9438 64.1188C34.9438 61.8141 36.8266 60.1403 38.9223 60.1403H61.9492C64.0409 60.1403 65.9276 61.8141 65.9276 64.1188V139.902C65.9276 141.992 64.0409 143.877 61.9492 143.877H38.9223C36.8266 143.877 34.9438 141.992 34.9438 139.902V64.1188ZM33.686 18.2759C33.686 9.06123 41.016 1.52429 50.2228 1.52429C59.4394 1.52429 66.9705 9.06123 66.9705 18.2759C66.9705 27.4867 59.4394 34.8127 50.2228 34.8127C41.016 34.8127 33.686 27.4867 33.686 18.2759Z" fill="#FF0000"/>
<path d="M108.323 169.759C107.13 169.681 106.273 169.656 105.423 169.568C104.124 169.435 102.812 168.871 102.511 167.624C102.224 166.437 103.122 165.658 103.982 164.99C107.068 162.597 110.573 161.781 114.323 161.353C115.444 161.228 115.894 160.849 115.823 159.666C115.38 152.381 115.583 145.137 116.202 137.859C116.257 137.184 116.46 136.774 116.804 136.211C117.12 135.688 117.804 135.324 118.892 135.961C119.802 136.49 119.938 137.74 119.952 138.832C119.856 142.516 119.72 146.277 119.782 149.922C119.835 152.654 120.263 161.406 120.356 163.078C120.429 164.404 120.509 165.728 120.581 167.054C120.673 168.669 120.075 169.367 118.565 169.519C114.937 169.884 111.62 169.767 108.323 169.759Z" fill="#00C7B1"/>
<path d="M139.116 141.381C139.065 145.817 139.694 161.268 139.889 164.729C139.973 166.248 140.041 167.77 140.09 169.289C140.131 170.334 139.422 171.324 138.366 171.369C135.329 171.5 132.561 171.727 129.669 171.727C125.389 171.727 123.118 171.004 122.128 170.244C121.843 170.027 121.688 169.674 121.608 169.258C121.387 168.127 122.225 167.311 122.985 166.568C125.776 164.182 130.307 163.186 134.002 162.24C134.829 162.031 135.147 161.803 135.112 160.85C134.987 157.334 135.045 153.825 135.053 150.295C135.057 146.881 135.012 143.475 135.11 140.049C135.157 138.46 135.553 137.626 137.19 137.626C139.243 137.626 139.149 141.067 139.116 141.381Z" fill="#00C7B1"/>
<path d="M147.036 22.8295C147.036 26.015 146.417 28.9974 145.179 31.7669C143.941 34.5422 142.257 36.9621 140.134 39.0245C138.011 41.0909 135.562 42.712 132.788 43.8916C130.015 45.0713 127.097 45.6611 124.031 45.6611C120.845 45.6611 117.863 45.0713 115.093 43.8916C112.316 42.712 109.93 41.0909 107.926 39.0245C105.916 36.9621 104.324 34.5422 103.144 31.7669C101.965 28.9974 101.377 26.015 101.377 22.8295C101.377 19.648 101.965 16.6676 103.144 13.8942C104.324 11.1227 105.916 8.70286 107.926 6.63845C109.93 4.57599 112.316 2.95297 115.093 1.77135C117.863 0.59169 120.845 -9.53674e-05 124.031 -9.53674e-05C127.097 -9.53674e-05 130.015 0.59169 132.788 1.77135C135.562 2.95297 138.011 4.57599 140.134 6.63845C142.257 8.70286 143.941 11.1227 145.179 13.8942C146.417 16.6676 147.036 19.648 147.036 22.8295Z" fill="#ACA49C"/>
<path d="M88.0414 101.922C87.3597 104.537 85.1723 104.586 85.1723 104.586L85.1703 104.584C84.1664 104.797 82.975 104.207 82.975 104.207C82.9575 103.644 82.9301 103.15 82.5629 102.502C81.2817 100.209 79.4302 99.5448 78.1392 99.0546C76.8463 98.5683 74.2623 99.0741 74.2623 99.0741C73.9635 98.9042 72.6686 98.1659 72.9323 96.6914C72.9752 96.4414 73.0416 96.2461 73.1139 96.0019C73.2584 95.5664 73.4244 95.1406 73.6159 94.7285C73.6627 94.6367 73.7037 94.543 73.7526 94.4512C74.2604 93.4434 74.8365 92.293 75.6119 91.3692C75.7857 91.1641 76.3853 90.297 77.3619 90.2052C77.1138 91.586 77.1255 92.8184 77.1509 93.791C77.231 97.2285 79.1157 98.5058 79.7564 98.7441C80.1314 98.8808 80.5435 98.9609 80.9985 99.0097C82.8657 99.0253 84.1371 98.2636 85.223 96.8691C85.477 96.4863 85.6684 96.123 85.8187 95.7988C86.4027 96.4726 86.8187 97.0234 87.0082 97.2988C87.7484 98.3691 88.0628 99.1874 88.1742 100.185C88.2308 100.693 88.2074 101.271 88.0414 101.922ZM79.0943 105.658C77.5123 105.467 76.1646 104.855 75.0826 103.664C74.3268 102.832 74.4615 102.228 75.5162 101.857C77.5826 101.129 79.77 102.469 80.0649 104.797C80.1021 105.318 79.9341 105.763 79.0943 105.658ZM81.9848 88.3712C82.477 87.6232 83.1762 87.4826 83.6957 87.4865C85.8578 87.504 87.8324 87.9806 89.4984 89.3165H89.5003C89.8968 89.6114 91.5706 90.586 91.3362 92.959C91.3343 93.0039 91.3284 93.0469 91.3245 93.0899C91.3186 93.1192 91.3186 93.1485 91.3167 93.1797C91.3108 93.2149 91.303 93.25 91.2991 93.2832C91.2893 93.3496 91.2757 93.4141 91.2639 93.4805C90.9925 95.0098 90.4456 95.7441 90.1136 96.0722C89.9515 96.2285 89.8323 96.3007 89.8323 96.3007L89.6917 96.416C88.7269 94.7441 87.1683 93.25 86.5004 92.6465C86.5004 92.6465 86.5023 92.6309 86.5043 92.5977V92.5743C86.5179 92.4532 86.5355 92.1856 86.557 91.879C86.5765 91.5762 86.5941 91.2383 86.6 90.9923C86.3851 90.629 85.8754 90.2052 85.5336 90.1622C85.2055 90.1192 85.0336 90.254 84.934 90.4649C84.809 90.7227 84.7953 91.0958 84.7621 91.4161C84.725 91.7286 84.6567 92.0235 84.5766 92.3145C84.5473 92.4258 84.516 92.5391 84.4789 92.6446C84.4203 92.8223 84.3422 92.9883 84.268 93.1582C84.1625 93.3887 84.0492 93.6113 83.9184 93.8262C83.6118 94.3262 83.2524 94.7988 82.8051 95.2168C82.5141 95.4961 81.9399 95.7265 81.604 95.625C81.3462 95.5469 81.1684 94.918 81.1196 94.5137C80.9966 93.5528 80.9302 92.5567 80.9985 91.586V91.5899C81.0591 90.7618 81.2231 89.9532 81.5434 89.2052L81.5512 89.1915C81.6587 88.9396 81.7876 88.6974 81.9341 88.463C81.9516 88.4337 81.9673 88.4005 81.9848 88.3712ZM115.74 78.2425C115.414 77.8402 114.717 77.4046 114.285 77.4867C113.24 77.6859 112.144 78.014 111.264 78.5882C109.814 79.5355 108.344 80.4065 106.803 81.1409C102.557 83.1662 97.3517 85.1232 95.674 85.5471L95.4982 85.5998C95.1057 85.7111 94.7092 85.801 94.3127 85.8791C92.6233 86.2677 91.26 86.5197 91.1448 86.4748C89.7913 85.9748 88.4495 85.5646 88.1156 85.4533C88.0921 85.4474 88.0706 85.4416 88.0453 85.4357C86.6176 84.9318 85.1234 84.5607 83.6254 84.3186C81.9712 84.0529 80.6997 84.5432 79.4478 85.6525C79.2193 85.881 78.8091 86.217 78.3579 86.9748C78.3579 86.9748 75.5455 85.926 73.1745 88.4611C73.1549 88.4825 73.1354 88.5021 73.11 88.5236C72.6276 89.1368 72.1686 89.7911 71.6589 90.4044C71.0768 90.2852 70.4675 90.1622 69.8581 90.0411C68.0164 89.67 66.1258 89.461 64.3387 88.9083C58.704 87.1623 50.7647 82.1467 46.173 78.2796C45.4523 77.6703 41.0169 74.5805 39.9134 76.2211C39.3978 76.9964 39.2435 78.4866 41.138 79.8675C41.3684 80.0315 42.261 80.7268 42.5286 80.9534C45.3332 83.3205 52.5342 87.6447 55.1377 88.9786C57.8876 90.3868 60.9227 91.3907 63.7899 92.5411C65.5281 93.2383 67.9304 93.6328 69.7585 94.2266C69.5866 94.668 69.4812 94.8437 69.4089 95.0703C68.7136 97.166 69.1726 99.5839 71.5827 101.211C71.5827 101.211 70.8718 102.326 72.1881 104.291C72.2096 104.32 72.2135 104.342 72.2292 104.371C72.8639 105.293 73.8385 106.271 75.0084 107.031C77.356 108.554 80.0747 108.925 81.604 108.478C82.1411 108.32 82.6001 107.972 82.9223 107.492C82.9223 107.492 86.8246 109.533 89.8069 106.635C90.0296 106.418 90.2562 106.187 90.4534 105.908C90.969 105.179 91.2835 104.558 91.4964 103.988C91.6624 103.531 91.7952 103.051 91.8401 102.629C91.9475 101.724 91.8928 100.752 91.7112 99.7987C92.262 99.3534 92.9905 98.703 93.6311 97.9042C94.0061 97.4374 94.3322 96.8242 94.6467 96.1347C94.6857 96.0527 94.7346 95.9609 94.7795 95.8496C95.1154 95.0723 95.2717 94.2949 95.3244 93.5625C95.3244 93.5528 95.3283 93.5391 95.3303 93.5293C95.3342 93.4453 95.3322 93.3633 95.3342 93.2813C95.383 91.8711 95.051 90.6759 94.8381 90.0684L97.6857 88.9923C99.7853 88.2208 101.846 87.4552 103.863 86.5861C107.945 84.8225 111.807 82.6389 115.219 79.7386C115.697 79.3343 116.23 78.848 115.74 78.2425Z" fill="#00C7B1"/>
<path d="M95.1802 79.1048V53.7967H145.974V114.325H157.833V138.926C153.702 140.58 149.072 141.814 143.939 142.641C138.806 143.465 134.174 143.881 130.047 143.881C124.971 143.881 120.754 143.377 117.393 142.377C114.029 141.375 111.344 139.899 109.342 137.951C107.334 136.004 105.916 133.613 105.092 130.783C104.264 127.953 103.852 124.709 103.852 121.051V79.1048H95.1802Z" fill="#ACA49C"/>
<path d="M147.159 98.1632C148.582 99.6163 150.692 102.028 150.283 104.87C150.283 105.005 150.209 105.243 150.02 105.427C149.711 105.728 148.356 106.017 143.805 103.532C141.717 102.39 140.012 100.618 139.104 99.5382C138.208 98.4757 138.817 97.714 139.635 97.1633C141.463 95.9348 144.37 95.3215 147.159 98.1632ZM154.264 84.2084C156.963 80.523 156.779 78.5308 153.664 75.2633C150.479 71.9196 144.758 66.3924 141.426 63.0311C141.047 62.6483 139.846 61.5819 139.256 61.3182C138.405 60.9374 137.213 60.6015 136.442 61.205C135.303 62.0878 135.756 63.3631 135.958 63.6952C136.2 64.0897 136.706 64.6385 137.846 65.699C141.211 68.6306 146.91 74.1012 150.112 77.2144C151.379 78.4507 151.428 80.1948 150.436 81.5776C148.739 83.935 144.623 88.4525 139.549 92.6008C138.303 93.6262 138.243 93.6614 136.899 94.6008C134.633 96.1828 135.001 100.03 136.926 101.942C140.309 105.294 141.231 105.663 145.791 107.97C146.051 108.101 146.487 108.278 146.768 108.374C149.024 109.159 152.209 109.296 152.887 108.089C153.965 106.165 153.994 104.667 153.545 102.495C152.717 98.5246 150.026 95.4934 146.086 93.6789C146.479 93.2493 146.848 92.8743 147.192 92.4778C149.565 89.7357 152.127 87.1283 154.264 84.2084Z" fill="#00C7B1"/>
<defs>
<radialGradient id="paint0_radial_476_8900" cx="0" cy="0" r="1" gradientUnits="userSpaceOnUse" gradientTransform="translate(54.3442 170.234) rotate(90) scale(9.76543 53.7099)">
<stop stop-color="#C4C4C4"/>
<stop offset="1" stop-color="#C4C4C4" stop-opacity="0"/>
</radialGradient>
<radialGradient id="paint1_radial_476_8900" cx="0" cy="0" r="1" gradientUnits="userSpaceOnUse" gradientTransform="translate(124.655 169.258) rotate(90) scale(10.742 53.7099)">
<stop stop-color="#C4C4C4"/>
<stop offset="1" stop-color="#C4C4C4" stop-opacity="0"/>
</radialGradient>
</defs>
</svg>
