<svg width="151" height="150" viewBox="0 0 151 150" fill="none" xmlns="http://www.w3.org/2000/svg">
<circle cx="75.5" cy="75" r="73" stroke="#00C7B1" stroke-width="4"/>
<path d="M120 44H31C29.0703 44 27.5 45.5703 27.5 47.5V102.376C27.5 104.306 29.0703 105.876 31 105.876H120C121.93 105.876 123.5 104.306 123.5 102.376V47.5C123.5 45.5703 121.93 44 120 44ZM120.5 102.376C120.5 102.652 120.275 102.876 120 102.876H31C30.7241 102.876 30.5 102.652 30.5 102.376V47.5C30.5 47.2241 30.7241 47 31 47H120C120.275 47 120.5 47.2241 120.5 47.5V102.376ZM111.305 56.6016C111.305 57.4302 110.633 58.1016 109.805 58.1016H85.1709C84.3428 58.1016 83.6709 57.4302 83.6709 56.6016C83.6709 55.7729 84.3428 55.1016 85.1709 55.1016H109.805C110.633 55.1016 111.305 55.7729 111.305 56.6016ZM111.305 64.4336C111.305 65.2622 110.633 65.9336 109.805 65.9336H98.6055C97.7773 65.9336 97.1055 65.2622 97.1055 64.4336C97.1055 63.605 97.7773 62.9336 98.6055 62.9336H109.805C110.633 62.9336 111.305 63.605 111.305 64.4336ZM92.5674 65.9336H87.8047C86.9766 65.9336 86.3047 65.2622 86.3047 64.4336C86.3047 63.605 86.9766 62.9336 87.8047 62.9336H92.5674C93.3955 62.9336 94.0674 63.605 94.0674 64.4336C94.0674 65.2622 93.3955 65.9336 92.5674 65.9336ZM111.305 72.2661C111.305 73.0947 110.633 73.7661 109.805 73.7661H93.6729C92.8447 73.7661 92.1729 73.0947 92.1729 72.2661C92.1729 71.4375 92.8447 70.7661 93.6729 70.7661H109.805C110.633 70.7661 111.305 71.4375 111.305 72.2661Z" fill="#B2ABA4"/>
<path fill-rule="evenodd" clip-rule="evenodd" d="M67.0833 79.1592C70.1174 76.5209 72.0474 72.6437 72.0474 68.3164C72.0474 60.3877 65.5967 53.937 57.668 53.937C49.7393 53.937 43.2886 60.3877 43.2886 68.3164C43.2886 72.6436 45.2184 76.5208 48.2526 79.1591C43.128 82.3287 39.6953 87.9833 39.6953 94.439C39.6953 95.2671 40.3667 95.939 41.1953 95.939H74.1401C74.9683 95.939 75.6401 95.2671 75.6401 94.439C75.6401 87.9835 72.2076 82.3289 67.0833 79.1592ZM50.9932 81.0416C46.5037 83.2877 43.2914 87.7222 42.77 92.939H72.5654C72.0441 87.7222 68.8321 83.2877 64.3427 81.0416C62.3459 82.0932 60.0772 82.6958 57.668 82.6958C55.2587 82.6958 52.99 82.0933 50.9932 81.0416ZM46.2886 68.3164C46.2886 67.0684 46.498 65.8701 46.871 64.7455C48.9114 65.0018 54.2094 65.3755 57.6653 63.082C58.064 62.8174 58.447 62.5302 58.7881 62.1899C59.1088 62.4894 59.4758 62.7844 59.8684 63.0693C61.3975 64.1788 63.4447 65.0903 65.8896 65.0903C66.7067 65.0903 67.5692 64.9835 68.4681 64.754C68.8392 65.8761 69.0474 67.0715 69.0474 68.3164C69.0474 74.5908 63.9424 79.6958 57.668 79.6958C51.3936 79.6958 46.2886 74.5908 46.2886 68.3164ZM52.493 66.6126C51.5773 66.6126 50.8349 67.355 50.8349 68.2708C50.8349 69.1865 51.5773 69.929 52.493 69.929C53.4088 69.929 54.1512 69.1865 54.1512 68.2708C54.1512 67.355 53.4088 66.6126 52.493 66.6126ZM62.843 66.6126C61.9272 66.6126 61.1849 67.355 61.1849 68.2708C61.1849 69.1865 61.9272 69.929 62.843 69.929C63.7588 69.929 64.5012 69.1865 64.5012 68.2708C64.5012 67.355 63.7588 66.6126 62.843 66.6126ZM55.9878 75.1406C55.4775 74.6763 54.686 74.7134 54.2217 75.2231C53.7568 75.7339 53.7939 76.5249 54.3042 76.9888C55.2632 77.8618 56.4658 78.2983 57.668 78.2983C58.8701 78.2983 60.0728 77.8618 61.0317 76.9888C61.542 76.5249 61.5791 75.7339 61.1143 75.2231C60.6499 74.7134 59.8589 74.6758 59.3481 75.1406C58.3901 76.0122 56.9458 76.0122 55.9878 75.1406ZM67.1077 61.9691C65.0615 58.936 61.5939 56.937 57.668 56.937C53.7806 56.937 50.3453 58.8991 48.2917 61.8823C51.2929 62.1176 55.9745 61.8695 57.3418 59.1353C57.5796 58.6597 58.0518 58.3457 58.5825 58.3096C59.1094 58.2729 59.6235 58.5215 59.9229 58.9609C60.0376 59.1258 62.6325 62.7345 67.1077 61.9691Z" fill="#00C7B1"/>
<path fill-rule="evenodd" clip-rule="evenodd" d="M107.805 79.7515H99.7812C97.8516 79.7515 96.2812 81.3218 96.2812 83.2515V91.2749C96.2812 93.2046 97.8516 94.7749 99.7812 94.7749H107.805C109.734 94.7749 111.305 93.2046 111.305 91.2749V83.2515C111.305 81.3218 109.734 79.7515 107.805 79.7515ZM107.805 91.7749C108.08 91.7749 108.305 91.5503 108.305 91.2749V83.2515C108.305 82.9761 108.08 82.7515 107.805 82.7515H99.7812C99.5059 82.7515 99.2812 82.9761 99.2812 83.2515V91.2749C99.2812 91.5503 99.5059 91.7749 99.7812 91.7749H107.805Z" fill="#FF0000"/>
</svg>
