<svg width="151" height="150" viewBox="0 0 151 150" fill="none" xmlns="http://www.w3.org/2000/svg">
<circle cx="75.5" cy="75" r="73" stroke="#00C7B1" stroke-width="4"/>
<g clip-path="url(#clip0_514_12480)">
<path d="M84.775 54.3088C86.775 52.0088 87.775 49.1088 87.775 46.0088C87.775 44.9088 86.875 44.0088 85.775 44.0088C84.675 44.0088 83.775 44.9088 83.775 46.0088C83.775 48.1088 83.075 50.1088 81.675 51.7088L77.875 56.2088C78.175 57.3088 78.375 58.4088 78.375 59.5088V61.6088L84.775 54.3088Z" fill="#00C7B1"/>
<path d="M93.3757 66.5088C93.9757 66.5088 94.4757 66.3088 94.8757 65.8088L97.1757 63.1088C100.876 58.7088 102.876 53.2088 102.876 47.5088C102.876 46.4088 101.976 45.5088 100.876 45.5088C99.7757 45.5088 98.8757 46.4088 98.8757 47.5088C98.8757 52.3088 97.1757 56.9088 94.0757 60.6088L91.7757 63.3088C91.0757 64.1088 91.1757 65.4088 91.9757 66.1088C92.4757 66.3088 92.9757 66.5088 93.3757 66.5088Z" fill="#B2ABA4"/>
<path d="M98.5748 30.1083C95.7748 27.6083 92.0748 26.4083 88.3748 26.7083C87.2748 26.8083 86.4748 27.8083 86.5748 28.8083C86.6748 29.9083 87.6748 30.7083 88.6748 30.6083C91.2748 30.3083 93.9748 31.2083 95.8748 33.0083C97.8748 34.8083 98.9748 37.3083 98.9748 40.0083C98.9748 41.1083 99.8748 42.0083 100.975 42.0083C102.075 42.0083 102.975 41.1083 102.975 40.0083C102.975 36.2083 101.375 32.6083 98.5748 30.1083Z" fill="#B2ABA4"/>
<path d="M80.2758 40.2085C80.2758 37.4085 81.4758 34.7085 83.5758 32.9085C84.3758 32.2085 84.4758 30.9085 83.7758 30.1085C83.0758 29.3085 81.8758 29.2085 80.9758 29.9085C77.9758 32.5085 76.2758 36.2085 76.2758 40.2085V46.1085C76.2758 46.2085 76.2758 46.3085 76.2758 46.4085C76.2758 46.5085 76.1758 46.6085 76.1758 46.7085C75.9758 47.0085 74.5758 48.6085 73.1758 50.2085C73.8758 50.6085 74.5758 51.2085 75.1758 51.8085C75.4758 52.1085 75.7758 52.5085 76.0758 52.9085C77.4758 51.3085 78.9758 49.6085 79.2758 49.1085C80.1758 47.9085 80.1758 47.1085 80.1758 46.1085V40.2085H80.2758Z" fill="#B2ABA4"/>
<path d="M103.676 24.5085C101.376 22.4085 98.5755 20.8085 95.4755 19.9085C94.4755 19.6085 93.3755 20.2085 93.0755 21.2085C92.7755 22.2085 93.3755 23.3085 94.3755 23.6085C96.8755 24.3085 99.1755 25.6085 100.976 27.3085C104.476 30.5085 106.576 35.1085 106.576 39.8085V47.3085C106.576 48.3085 106.476 49.2085 106.376 50.1085C106.276 51.2085 106.976 52.2085 108.076 52.3085C108.176 52.3085 108.276 52.3085 108.276 52.3085C109.276 52.3085 110.076 51.6085 110.176 50.6085C110.276 49.6085 110.376 48.5085 110.376 47.3085V39.8085C110.476 34.1085 107.976 28.4085 103.676 24.5085Z" fill="#B2ABA4"/>
<path d="M70.7754 46.4084C71.8754 46.4084 72.7754 45.5084 72.7754 44.4084V40.1084C72.7754 31.2084 79.3754 23.9084 87.9754 23.0084C89.0754 22.9084 89.8754 21.9084 89.7754 20.8084C89.6754 19.7084 88.6754 18.9084 87.5754 19.0084C76.8754 20.1084 68.7754 29.1084 68.7754 40.0084V44.3084C68.7754 45.5084 69.6754 46.4084 70.7754 46.4084Z" fill="#B2ABA4"/>
<path d="M101.175 82.5088C99.5755 82.5088 98.1755 83.0088 96.8755 83.8088C95.7755 81.0088 92.9755 79.1088 89.8755 79.1088C88.2755 79.1088 86.8755 79.6088 85.5755 80.4088C84.4755 77.6088 81.6755 75.7088 78.5755 75.7088C77.2755 75.7088 75.9755 76.0088 74.8755 76.7088V59.6088C74.8755 57.6088 74.0755 55.7088 72.6755 54.2088C71.2755 52.8088 69.3755 52.0088 67.2755 52.0088C63.0755 52.0088 59.6755 55.4088 59.6755 59.6088V98.0088L54.5755 92.9088C51.9755 90.3088 47.8755 89.9088 44.8755 92.0088C43.0755 93.2088 41.8755 95.1088 41.5755 97.3088C41.2755 99.4088 41.8755 101.609 43.2755 103.309L51.8755 113.509C52.5755 114.309 53.7755 114.409 54.5755 113.709C55.3755 113.009 55.4755 111.809 54.7755 111.009L46.1755 100.809C45.4755 100.009 45.1755 98.9088 45.3755 97.9088C45.5755 96.8088 46.0755 95.9088 46.9755 95.3088C48.4755 94.3088 50.4755 94.5088 51.7755 95.7088L57.9755 101.909C58.8755 102.809 60.2755 103.109 61.5755 102.609C62.7755 102.109 63.5755 100.909 63.5755 99.6088V59.6088C63.5755 57.6088 65.1755 55.9088 67.2755 55.9088C68.2755 55.9088 69.1755 56.3088 69.8755 57.0088C70.5755 57.7088 70.9755 58.6088 70.9755 59.6088V87.1088C70.9755 88.2088 71.8755 89.1088 72.8755 89.1088C73.9755 89.1088 74.7755 88.2088 74.7755 87.1088V83.4088C74.7755 81.4088 76.4755 79.7088 78.4755 79.7088C80.4755 79.7088 82.1755 81.4088 82.1755 83.4088V90.5088C82.1755 91.6088 83.0755 92.5088 84.0755 92.5088C85.1755 92.5088 85.9755 91.6088 85.9755 90.5088V86.7088C85.9755 84.7088 87.6755 83.0088 89.6755 83.0088C91.6755 83.0088 93.3755 84.7088 93.3755 86.7088V93.8088C93.3755 94.9088 94.2755 95.8088 95.3755 95.8088C96.4755 95.8088 97.2755 94.9088 97.2755 93.8088V90.3088C97.2755 90.2088 97.2755 90.1088 97.2755 90.1088C97.2755 88.1088 98.8755 86.4088 100.975 86.4088C102.975 86.4088 104.675 88.0088 104.675 90.1088V112.209C104.675 113.309 105.575 114.209 106.675 114.109C107.775 114.109 108.575 113.209 108.575 112.209V90.1088C108.775 85.9088 105.375 82.5088 101.175 82.5088Z" fill="#B2ABA4"/>
<path d="M83.8759 66.1088C84.4759 66.1088 84.9759 65.9088 85.3759 65.4088L91.4759 58.2088C93.9759 55.2088 95.3759 51.4088 95.3759 47.5088V40.0088C95.3759 38.4088 94.6759 36.8088 93.4759 35.7088C92.2759 34.6088 90.6759 34.1088 89.0759 34.2088C86.6759 34.4088 84.6759 36.3088 84.0759 38.8088C83.8759 39.9088 84.4759 40.9088 85.5759 41.2088C86.6759 41.4088 87.6759 40.8088 87.9759 39.7088C88.1759 39.0088 88.6759 38.3088 89.5759 38.2088C90.0759 38.1088 90.5759 38.3088 90.9759 38.7088C91.3759 39.0088 91.5759 39.5088 91.5759 40.0088V47.5088C91.5759 50.5088 90.4759 53.4088 88.5759 55.7088L82.4759 62.9088C81.7759 63.7088 81.8759 65.0088 82.6759 65.7088C82.9759 65.9088 83.3759 66.1088 83.8759 66.1088Z" fill="#FF0000"/>
</g>
<defs>
<clipPath id="clip0_514_12480">
<rect width="68" height="113" fill="white" transform="translate(41.5 19)"/>
</clipPath>
</defs>
</svg>
