<svg width="151" height="150" viewBox="0 0 151 150" fill="none" xmlns="http://www.w3.org/2000/svg">
<circle cx="75.5" cy="75" r="73" stroke="#00C7B1" stroke-width="4"/>
<path fill-rule="evenodd" clip-rule="evenodd" d="M47.1118 46.6001L45.2461 50.3474L54.067 54.7579H62.9376V50.5681H55.0491L47.1111 46.6001H47.1118Z" fill="#B2ABA4"/>
<path fill-rule="evenodd" clip-rule="evenodd" d="M69.508 46.3799C66.0075 46.3799 62.7352 48.1316 60.7929 51.0446L50.7114 66.167C50.2812 66.8104 50.24 67.639 50.6048 68.3217C50.9695 69.0053 51.6803 69.4318 52.4546 69.4318H62.7822C64.8818 69.4318 66.8468 68.3806 68.011 66.6328L69.7131 64.0797C70.1022 63.4961 70.754 63.1473 71.4563 63.1473H74.2302C74.6435 63.1473 75.0485 63.2689 75.3917 63.4989L107.437 84.8563C108.962 85.872 109.306 87.8921 108.207 89.3566L108.076 89.5287C107.101 90.8295 105.346 91.1755 103.952 90.3385L87.0533 80.1998V80.2008C86.5763 79.881 85.989 79.7715 85.4288 79.8968C84.8686 80.0222 84.3842 80.371 84.0877 80.8629C83.7922 81.3549 83.7108 81.9468 83.8633 82.5005C84.0148 83.0541 84.387 83.5217 84.8929 83.7929L101.791 93.9316C104.999 95.8563 109.186 95.0426 111.43 92.05L111.561 91.8779C114.07 88.5326 113.241 83.6902 109.761 81.3707L77.7157 60.005C76.6832 59.3167 75.4712 58.9491 74.23 58.9491H71.4562C69.3566 58.9491 67.3917 60.0003 66.2274 61.7481L64.5253 64.3012C64.1363 64.8848 63.4844 65.2336 62.7821 65.2336H56.3749L64.2803 53.3762C65.4465 51.6273 67.4068 50.5779 69.5091 50.5779H82.7087C83.2923 50.5779 83.8656 50.6537 84.4267 50.8164L96.3983 54.2364C97.9106 54.6685 99.5332 54.5216 100.94 53.8174L103.672 52.4511C104.71 51.9321 105.129 50.6695 104.61 49.6325C104.09 48.5953 102.828 48.1764 101.791 48.6963L99.0573 50.0627C98.5888 50.2974 98.0557 50.3479 97.5516 50.2011L85.58 46.781C84.6438 46.5126 83.6815 46.3789 82.708 46.3789H69.5084L69.508 46.3799Z" fill="#B2ABA4"/>
<path fill-rule="evenodd" clip-rule="evenodd" d="M115.758 70.2163L107.379 80.6907L110.652 83.3007L119.032 72.8264L115.758 70.2163Z" fill="#B2ABA4"/>
<path fill-rule="evenodd" clip-rule="evenodd" d="M32.9911 72.1304L30.0293 75.0922L38.4088 83.4716L41.3706 80.5098L32.9911 72.1304Z" fill="#B2ABA4"/>
<path fill-rule="evenodd" clip-rule="evenodd" d="M52.349 38.0076C51.6598 38.044 51.0322 38.4172 50.6722 39.0064L26.6303 77.0899L13.7177 69.7093H13.7168C13.2333 69.4025 12.646 69.3071 12.0905 69.4455C11.535 69.583 11.0599 69.9421 10.7765 70.4387C10.4922 70.9353 10.4239 71.5264 10.5866 72.0744C10.7494 72.6234 11.1291 73.0816 11.6378 73.3425L26.2851 81.722H26.2861C27.2606 82.2803 28.5025 81.9698 29.1011 81.0178L54.2156 41.2392L54.2146 41.2402C54.643 40.579 54.6654 39.7345 54.2717 39.0527C53.878 38.3709 53.1354 37.9669 52.3489 38.0071L52.349 38.0076Z" fill="#00C7B1"/>
<path d="M53.1514 77.9347C51.5896 78.2611 50.1523 79.172 49.2152 80.5934L40.9097 93.1954C39.0356 96.0394 39.8436 99.9308 42.6941 101.796L42.9064 101.942H42.9148C45.7653 103.807 49.6493 103.003 51.5234 100.159L59.8289 87.557C61.7031 84.713 60.8951 80.8206 58.0455 78.9558L57.8332 78.809L57.8323 78.81H57.8238C56.3986 77.8776 54.7124 77.6092 53.1514 77.9346V77.9347ZM55.525 82.3124H55.5334L55.7457 82.4592H55.7541C56.7202 83.0914 56.9652 84.281 56.3274 85.2498L48.0219 97.8519C47.385 98.8179 46.1805 99.0667 45.2153 98.441L44.9946 98.2942L44.9936 98.2933H44.9852C44.0191 97.6611 43.7741 96.4715 44.4119 95.5027L52.7174 82.9006C53.3543 81.9346 54.5598 81.6858 55.5241 82.3115L55.525 82.3124Z" fill="#B2ABA4"/>
<path d="M57.8873 86.1163C56.3087 86.4473 54.8535 87.3667 53.9099 88.8087L48.1733 97.5725C46.287 100.456 47.1072 104.393 49.9895 106.279C52.8728 108.166 56.8015 107.337 58.6879 104.455L64.4245 95.6909C66.3108 92.8076 65.4906 88.8788 62.6074 86.9925C61.1662 86.0489 59.4641 85.787 57.8854 86.1172L57.8873 86.1163ZM60.3178 90.5023C61.3194 91.157 61.5785 92.3971 60.9238 93.3988L55.1872 102.162C54.5317 103.163 53.2832 103.423 52.2824 102.768C51.2808 102.112 51.0218 100.873 51.6774 99.8711L57.414 91.1074C58.0695 90.1058 59.3171 89.8467 60.3188 90.5023H60.3178Z" fill="#B2ABA4"/>
<path d="M63.46 92.6049C61.8832 92.9444 60.4326 93.8824 59.4994 95.3301L55.7679 101.115C53.9002 104.011 54.7419 107.933 57.6336 109.805C60.5252 111.679 64.4569 110.835 66.3246 107.94L70.0561 102.154C71.9237 99.2589 71.082 95.3366 68.1903 93.4644C66.7445 92.5282 65.0377 92.2664 63.4609 92.6049L63.46 92.6049ZM65.9149 96.9752C66.9193 97.6251 67.1859 98.8746 66.5368 99.88L62.8053 105.674C62.1563 106.68 60.9209 106.946 59.9166 106.295C58.9122 105.645 58.6382 104.397 59.2862 103.391L63.0261 97.5971C63.6752 96.5908 64.9106 96.3243 65.9149 96.9752H65.9149Z" fill="#B2ABA4"/>
<path d="M43.2038 77.8843C41.6271 78.2238 40.185 79.1618 39.2516 80.6086L35.5117 86.3938C33.6441 89.2892 34.4932 93.2116 37.3858 95.0838C40.2775 96.957 44.2007 96.1134 46.0684 93.218L49.7999 87.4328C51.6675 84.5374 50.8258 80.615 47.9342 78.7419C46.4883 77.8057 44.7816 77.5439 43.2038 77.8834L43.2038 77.8843ZM45.6588 82.262C46.6632 82.9119 46.9297 84.153 46.2807 85.1584L42.5492 90.952C41.9002 91.9582 40.6647 92.2248 39.6604 91.5739C38.656 90.9239 38.3895 89.6754 39.0385 88.6691L42.77 82.8755C43.419 81.8692 44.6544 81.6111 45.6588 82.262V82.262Z" fill="#B2ABA4"/>
<path fill-rule="evenodd" clip-rule="evenodd" d="M98.5935 38.0007C97.8145 37.981 97.0887 38.3944 96.7091 39.0743C96.3294 39.7551 96.3584 40.5893 96.7848 41.2421L121.899 81.0207V81.0197C122.497 81.9718 123.739 82.2823 124.714 81.7239L139.363 73.3445H139.362C139.87 73.0836 140.251 72.6253 140.414 72.0763C140.577 71.5283 140.507 70.9372 140.224 70.4407C139.94 69.9441 139.465 69.5849 138.909 69.4475C138.354 69.3091 137.766 69.4044 137.284 69.7112L124.37 77.0918L100.328 39.0083C99.9579 38.3995 99.3051 38.0208 98.5934 38.0011L98.5935 38.0007Z" fill="#FF0000"/>
<path fill-rule="evenodd" clip-rule="evenodd" d="M81.6954 88.2596C80.7621 88.2829 79.9568 88.9189 79.7184 89.8204C79.4799 90.722 79.8652 91.6731 80.6639 92.1547L92.4559 99.5195C96.1743 101.844 101.099 100.883 103.675 97.3349L105.475 94.8558V94.8548C105.821 94.4059 105.971 93.8354 105.89 93.2743C105.809 92.7132 105.504 92.2082 105.045 91.8752C104.586 91.5423 104.011 91.4095 103.453 91.5067C102.894 91.604 102.398 91.9239 102.079 92.3924L100.279 94.8715C98.9752 96.668 96.5558 97.1366 94.6733 95.9601L82.8896 88.5953C82.5342 88.3652 82.118 88.2483 81.6953 88.2595L81.6954 88.2596Z" fill="#B2ABA4"/>
<path fill-rule="evenodd" clip-rule="evenodd" d="M77.6388 96.6393C76.6681 96.6075 75.8021 97.2453 75.5458 98.1815C75.2887 99.1176 75.7076 100.108 76.5587 100.576L86.1249 106.042C89.9378 108.221 94.8298 107.174 97.4092 103.62L99.2581 101.067C99.9408 100.129 99.7342 98.8156 98.7961 98.1329C97.8581 97.4502 96.5451 97.6578 95.8624 98.5949L94.0134 101.156C92.6714 103.005 90.195 103.534 88.2115 102.4L78.6378 96.9339H78.6369C78.3348 96.7534 77.9907 96.6533 77.639 96.6402L77.6388 96.6393Z" fill="#B2ABA4"/>
<path fill-rule="evenodd" clip-rule="evenodd" d="M67.8729 103.178L66.3672 107.098L78.9364 111.892C82.1134 113.106 85.7401 111.938 87.602 109.094L89.435 106.287L85.9242 103.988L84.0912 106.794C83.2963 108.009 81.7887 108.491 80.4337 107.973L67.8729 103.178Z" fill="#B2ABA4"/>
<path d="M25.2073 67.3327C25.2073 67.8882 24.9866 68.4203 24.5938 68.8131C24.201 69.2068 23.668 69.4275 23.1124 69.4275C21.9556 69.4275 21.0176 68.4895 21.0176 67.3327C21.0176 66.1749 21.9556 65.2378 23.1124 65.2378C23.668 65.2378 24.201 65.4585 24.5938 65.8513C24.9866 66.2441 25.2073 66.7762 25.2073 67.3327Z" fill="#00C7B1"/>
<path d="M129.965 67.3327C129.965 67.8882 129.744 68.4203 129.352 68.8131C128.959 69.2068 128.426 69.4275 127.87 69.4275C126.713 69.4275 125.775 68.4895 125.775 67.3327C125.775 66.1749 126.713 65.2378 127.87 65.2378C128.426 65.2378 128.959 65.4585 129.352 65.8513C129.744 66.2441 129.965 66.7762 129.965 67.3327Z" fill="#FF0000"/>
</svg>
