<svg width="60" height="90" viewBox="0 0 60 90" fill="none" xmlns="http://www.w3.org/2000/svg">
<rect x="3" y="80.3077" width="56.0769" height="9.69231" fill="url(#paint0_radial_482_12109)"/>
<path d="M50.7794 51.1212C50.6027 52.5419 50.0527 53.0841 49.6398 53.2898C49.3639 53.427 49.2202 53.4214 49.0341 53.4047C48.9292 53.3936 48.761 53.338 48.571 53.2083C48.1458 52.9173 47.9426 52.3047 47.851 51.7644C47.7413 51.1156 47.7848 50.5123 47.9369 49.9442C48.2185 48.7774 48.8564 47.9572 49.3601 47.4614C49.362 47.4586 49.3648 47.4568 49.3657 47.454C49.4423 47.365 49.516 47.3011 49.584 47.2511C49.86 47.0092 50.0537 46.8896 50.0537 46.8896C50.0537 46.8896 51.0752 48.7459 50.7794 51.1212ZM50.7114 44.0009C50.5347 43.7637 50.3495 43.544 50.2795 43.2512C49.2779 39.0845 46.9239 35.674 44.0663 32.5425C42.7868 31.1421 41.5234 29.7288 39.9387 28.6353C39.4728 28.3146 39.0145 27.9865 38.4816 27.7873C37.8248 27.5426 37.2739 27.7789 37.0235 28.3961C36.7674 29.0328 37.0112 29.4211 37.6292 29.7288C39.5843 30.701 41.1728 32.1264 42.5648 33.7686C44.243 35.7472 45.8155 37.7916 46.9466 40.1373C47.4919 41.2725 47.8717 42.4523 48.1751 43.6608C48.2847 44.0973 48.2072 44.5301 48.0466 44.9786C47.4928 46.5245 46.5488 48.0147 46.099 49.4901C45.4734 51.5401 45.6926 53.6494 47.2849 55.0961C47.3974 55.1989 47.5542 55.2972 47.7016 55.3157C48.9953 55.4853 50.546 55.4288 51.4796 54.1174C52.4057 52.8135 52.8045 51.3566 52.8451 49.7922C52.8763 47.5967 51.9965 45.7238 50.7114 44.0009Z" fill="#B2ABA4"/>
<path d="M33.4611 69.4622C33.4524 69.0831 33.8485 68.6559 34.462 68.5588C35.1802 68.4479 35.5196 68.802 35.6234 69.3531C35.8445 70.5163 36.0724 71.6832 36.2051 72.8529C36.533 75.7249 36.5618 81.5447 36.5618 81.5447C36.5618 81.5447 39.0904 81.8508 40.6413 82.3538C42.1816 82.8531 43.0026 83.2849 44.043 84.13C44.8621 84.7958 44.4612 85.7676 44.2679 85.7842C43.668 85.836 42.4008 85.8462 41.7662 85.8462C39.776 85.8453 36.981 85.763 34.9937 85.8194C34.4793 85.836 34.2735 85.7926 34.1928 85.6455C34.1014 85.4726 34.1649 83.5309 34.187 82.9862C34.3225 79.6057 34.3225 76.4545 33.988 73.0194C33.8784 71.8894 33.6563 70.7697 33.4611 69.4622Z" fill="#B2ABA4"/>
<path d="M29.3073 69.4622C29.3154 69.0831 28.945 68.6559 28.3699 68.5588C27.6956 68.4479 27.3783 68.802 27.28 69.3531C27.0727 70.5163 26.8014 71.6805 26.7347 72.8529C26.6364 74.5968 26.5688 75.969 26.4994 77.5298C26.4525 78.5923 26.4011 81.5447 26.4011 81.5447L25.1644 81.6658L25.1635 81.6649C24.3684 81.7472 23.2966 82.0902 22.5764 82.3538C21.1404 82.879 20.3625 83.2849 19.3872 84.13C18.6191 84.7958 18.9941 85.7676 19.1762 85.7842C19.7387 85.836 20.9268 85.8462 21.5217 85.8462C23.3877 85.8453 26.0081 85.763 27.8714 85.8194C28.5249 85.8406 28.6502 85.7547 28.661 85.4467C28.6673 85.2609 28.6583 84.0514 28.6547 83.7657C28.6529 83.5059 28.6448 83.2451 28.6277 82.9862C28.396 79.5687 28.4167 76.4249 28.8143 73.0194C28.9459 71.8913 29.1243 70.7697 29.3073 69.4622Z" fill="#B2ABA4"/>
<path d="M4.16097 16.3417C3.43574 15.9635 2.99623 15.6314 2.92798 14.7559C2.91433 14.56 3.04263 14.0925 3.22554 13.5826C3.53219 12.7278 3.88435 12.2513 4.57683 12.0311C6.22477 11.5094 8.3195 13.4427 9.00197 14.7604C9.19306 15.1323 9.11662 15.7469 8.89732 16.2695C8.68439 16.7776 8.37773 17.2668 7.44775 17.3417C6.58238 17.4112 5.31026 16.9401 4.16097 16.3417ZM20.7614 28.7961C20.3091 28.2816 19.7049 28.1399 19.2709 28.5C18.9415 29.1345 14.1624 31.279 12.559 31.5859C11.1795 31.9559 10.3341 31.9821 9.48879 30.1219C8.96921 29.0704 8.72625 25.6525 8.64799 24.1569C8.52515 21.7904 8.50877 20.0088 8.49239 19.1143C9.13209 18.8986 9.72447 18.4898 10.2468 17.8616C10.2832 17.8192 10.5134 17.478 10.5962 17.3525C10.8819 16.9229 11.0375 16.4292 11.1003 15.9175C11.1395 15.6016 11.1204 15.1404 11.0749 14.8082C11.104 14.3786 11.084 13.8777 11.0694 13.6945C10.9884 12.7125 10.9657 11.7025 11.3142 10.7792C11.5317 10.2097 11.7928 9.73948 11.8183 9.13025C11.8256 8.99578 11.8183 8.85407 11.7473 8.73945C11.6609 8.59955 11.134 8.36489 10.9711 8.33149C10.396 8.21326 10.1303 8.55172 9.74722 8.99578C9.42419 9.37033 9.22218 9.8514 9.10752 10.3659C9.01289 10.7729 9.02563 11.2531 9.05838 11.7071C8.1011 10.7567 6.91543 10.1312 5.18286 9.77739C3.01442 9.49759 1.63947 11.6033 1.04982 14.0672C0.706765 15.505 1.01888 17.0105 2.47937 17.7334C3.88071 18.4275 4.47946 18.8111 6.32395 19.1712C6.33396 19.1748 6.34397 19.1748 6.35307 19.1766C6.34124 19.5485 6.33214 20.0223 6.32941 20.3328C6.3285 20.673 6.34215 21.6198 6.37127 22.5386C6.38219 22.9033 6.54962 25.4476 6.56964 25.7923C6.62879 26.7915 6.69158 27.8357 6.86083 28.8457C7.15293 30.5985 7.86542 32.1897 9.33865 33.3215C10.7655 34.3477 12.7974 33.8395 13.9358 33.418C15.9541 32.668 18.9688 31.4559 20.573 29.9405C20.9989 29.5407 21.1827 29.2753 20.7614 28.7961Z" fill="#B2ABA4"/>
<path d="M31.682 7.62939e-06C38.5062 7.62939e-06 42.5599 5.6482 42.5599 10.2904C42.5599 15.8382 38.7022 20.4785 31.682 20.4785C25.4538 20.4785 21.001 15.1316 21.001 10.2904C21.001 5.6482 24.7594 7.62939e-06 31.682 7.62939e-06ZM45.9228 75.4615H18.2305V62.2444H22.3862V38.1343H18.2305V25.0194H41.1746V62.2444H45.9228V75.4615Z" fill="white"/>
<path d="M31.682 7.62939e-06C38.5062 7.62939e-06 42.5599 5.6482 42.5599 10.2904C42.5599 15.8382 38.7022 20.4785 31.682 20.4785C25.4538 20.4785 21.001 15.1316 21.001 10.2904C21.001 5.6482 24.7594 7.62939e-06 31.682 7.62939e-06ZM45.9228 75.4615H18.2305V62.2444H22.3862V38.1343H18.2305V25.0194H41.1746V62.2444H45.9228V75.4615Z" fill="#FF0000"/>
<defs>
<radialGradient id="paint0_radial_482_12109" cx="0" cy="0" r="1" gradientUnits="userSpaceOnUse" gradientTransform="translate(31.0385 85.1539) rotate(90) scale(4.84615 28.0385)">
<stop stop-color="#C4C4C4"/>
<stop offset="1" stop-color="#C4C4C4" stop-opacity="0"/>
</radialGradient>
</defs>
</svg>
