<svg width="70" height="66" viewBox="0 0 70 66" fill="none" xmlns="http://www.w3.org/2000/svg">
<rect x="37.7944" y="57.4072" width="30.7609" height="5.0336" fill="url(#paint0_radial_476_9052)"/>
<rect x="2" y="57.4072" width="31.3202" height="5.59289" fill="url(#paint1_radial_476_9052)"/>
<path d="M48.4259 50.3003C48.9002 49.3132 49.3465 48.5352 50.0171 47.6521C50.4231 47.1163 50.4471 46.623 50.3174 46.0134C49.9427 44.2622 49.6077 42.3344 49.6166 40.5268C49.5981 39.68 49.606 38.7527 49.7464 37.888C49.8073 37.6207 49.903 37.3466 50.2497 37.4199C50.5881 37.4898 50.7106 37.6984 50.6949 38.091C50.6496 39.2661 50.6653 40.2359 50.7464 41.2935C50.856 42.7404 51.1485 44.1549 51.4869 45.5632C51.6491 46.2393 51.8465 46.8876 52.1479 47.5263C52.4254 48.1135 52.1054 48.7422 51.8627 49.3093C51.2995 50.6202 50.4589 51.7444 49.4298 52.7243C49.0953 53.0425 48.4376 53.481 47.9125 53.2478C47.7195 53.1628 47.564 52.9922 47.611 52.5923C47.6921 51.9116 48.0131 51.1611 48.4259 50.3003Z" fill="#00C7B1"/>
<path d="M38.1884 14.1159C38.1342 14.2081 38.0788 14.2546 37.9541 14.2328C37.2891 14.1192 36.8064 13.7898 36.5911 13.1198C36.416 12.523 36.2662 12.2255 36.5575 11.617C36.8501 11.3172 37.1342 11.2255 37.4155 11.485C38.0033 12.0269 38.3484 12.2859 38.4278 13.1416C38.4603 13.5062 38.3657 13.8144 38.1884 14.1159ZM47.1393 21.7798C46.9687 21.598 46.7321 21.5857 46.5196 21.5175C44.6829 20.9314 42.9251 19.9576 41.5235 18.3961C40.5654 17.2999 39.8685 16.3379 39.2768 14.9794C39.189 14.7781 39.1985 14.6349 39.2986 14.4319C39.6784 13.6651 39.6527 12.8703 39.3831 12.0616C39.052 11.4089 38.7007 10.9973 38.1532 10.49C37.6482 10.023 37.0866 9.88763 36.4239 10.1471C35.8713 10.3636 35.4339 10.7741 35.4194 11.4699C35.416 11.6186 35.3752 11.6349 35.3651 11.7887C35.2891 12.9005 35.4971 13.7042 36.3204 14.5213C36.779 14.9766 37.3982 15.1338 38.0011 15.2999C38.1252 15.3329 38.2298 15.3295 38.2953 15.4772C38.8568 16.7289 39.4782 17.716 40.3557 18.758C41.1862 19.7457 42.1963 20.8447 43.3792 21.4487C44.2304 21.8822 45.127 22.1976 46.0353 22.4772C46.3507 22.574 46.6885 22.6685 47.0263 22.4661C47.3138 22.2932 47.3703 22.0242 47.1393 21.7798Z" fill="#00C7B1"/>
<path d="M47.532 13.7364C44.0773 14.3455 41.4984 13.1822 40.8994 9.78057C40.2987 6.37841 42.3233 4.403 45.7786 3.79394C49.2317 3.18487 51.8117 4.34819 52.4123 7.74979C53.0119 11.1519 50.985 13.1279 47.532 13.7364Z" fill="#C6BFB9"/>
<path d="M47.2699 41.626L43.0708 17.8153L52.8544 14.8489L57.2644 39.8637L47.2699 41.626Z" fill="#C6BFB9"/>
<path d="M54.5514 50.8215C54.8865 49.6979 55.2293 48.7996 55.7903 47.7527C56.1303 47.1179 56.0727 46.591 55.8328 45.9685C55.1432 44.1793 54.4653 42.1944 54.1711 40.2805C54.01 39.3874 53.8635 38.4047 53.8657 37.4668C53.8859 37.1737 53.9407 36.8683 54.3199 36.8868C54.6901 36.9041 54.8546 37.1043 54.9038 37.5232C55.0526 38.7733 55.2321 39.7979 55.495 40.903C55.8546 42.4154 56.401 43.8628 56.9944 45.2957C57.2808 45.9847 57.5979 46.6363 58.0235 47.261C58.4161 47.8365 58.1823 48.5558 58.0207 49.1962C57.646 50.6789 56.9446 52.0088 56.0201 53.218C55.7209 53.6112 55.0967 54.185 54.5028 54.0268C54.2835 53.9686 54.0906 53.8142 54.0738 53.383C54.0464 52.6498 54.2595 51.8013 54.5514 50.8215Z" fill="#00C7B1"/>
<path d="M59.0613 8.27207C58.7749 8.55396 58.3778 8.63841 57.9947 8.39456C57.6071 8.14847 57.2928 7.80954 57.3717 7.33359C57.5132 6.47619 57.7134 5.62552 58.247 4.90403C58.6675 4.33635 59.2928 4.15458 59.62 4.53378C59.9349 4.90124 60.1407 5.33916 60.2022 5.91914C60.0976 6.77933 59.7341 7.60876 59.0613 8.27207ZM60.5669 3.67304C59.6586 2.71777 58.1804 2.84137 57.4651 3.6557C56.771 4.44653 56.4326 5.41466 56.1317 6.41132C55.7755 7.59365 56.1267 8.52375 57.0092 9.28718C57.219 9.46895 57.2229 9.65128 57.1927 9.84256C57.1379 10.1927 57.0501 10.5411 56.9382 10.8778C56.5042 12.1865 55.7643 13.3437 55.1149 14.5479C54.1407 16.351 52.7296 17.6944 50.9555 18.681C50.6244 18.8639 50.6887 19.1788 50.8174 19.3902C50.9823 19.6598 51.3084 19.9506 51.6261 19.7537C52.6904 19.0954 53.7849 18.4573 54.6317 17.5127C55.9852 16.002 57.092 14.3085 57.7934 12.3879C58.1049 11.5668 58.1614 11.1345 58.3336 10.4919C58.4153 10.1854 58.4539 9.87891 58.9164 9.77376C60.7844 9.34815 61.6346 7.22061 61.5887 5.95997C61.5322 5.13222 61.1849 4.32293 60.5669 3.67304Z" fill="#00C7B1"/>
<path d="M21.4262 47.9782C21.7288 47.8613 21.9335 47.759 22.1801 47.6544C22.5347 47.5034 22.8859 47.396 23.2349 47.3277C24.4944 47.0828 25.7137 47.3563 26.8983 48.0073C27.0968 48.1152 27.1941 48.2797 27.1947 48.4446C27.1952 48.5727 27.1041 48.7657 26.9162 48.8691C26.1147 49.3132 23.3009 50.3697 22.0347 50.9251C21.9122 50.9782 21.014 51.3362 20.5811 51.1236C20.1588 50.915 20.09 50.5051 20.0884 49.9117C20.0861 49.4329 20.0884 48.9933 20.0861 48.5543C20.0839 47.6566 20.1096 46.1186 19.6997 43.368C19.4709 41.8322 19.1594 40.3137 18.6275 38.8383C18.5525 38.6325 18.5123 38.543 18.4961 38.4915C18.2819 37.8126 18.4474 37.5077 18.7936 37.4602C19.4144 37.3735 19.5995 37.9552 19.6057 37.9736C20.7438 41.194 21.4021 44.543 21.4262 47.9782Z" fill="#00C7B1"/>
<path d="M32.8308 13.1201C32.616 13.7896 32.1328 14.1196 31.4678 14.2331C31.3436 14.2549 31.2877 14.2085 31.234 14.1162C31.0567 13.8148 30.9616 13.5061 30.9958 13.142C31.0735 12.2857 31.4186 12.0273 32.0064 11.4853C32.2888 11.2253 32.5724 11.3176 32.8649 11.6168C33.1557 12.2253 33.0053 12.5234 32.8308 13.1201ZM34.0573 11.789C34.0467 11.6352 34.0059 11.619 34.0019 11.4702C33.988 10.7745 33.55 10.364 32.998 10.1475C32.3353 9.88801 31.7743 10.0228 31.2692 10.4898C30.7211 10.9976 30.3705 11.4087 30.0394 12.062C29.7692 12.8707 29.7435 13.6655 30.1238 14.4322C30.2245 14.6353 30.2329 14.7779 30.1451 14.9798C29.5545 16.3377 28.857 17.3003 27.899 18.3965C26.4968 19.958 24.739 20.9317 22.9034 21.5179C22.6892 21.5861 22.4532 21.5984 22.2826 21.7802C22.0527 22.0246 22.1086 22.2936 22.3956 22.4659C22.7334 22.6683 23.0717 22.5744 23.3872 22.4771C24.2955 22.198 25.1926 21.8825 26.0427 21.4491C27.2261 20.8451 28.2351 19.746 29.0662 18.7583C29.9443 17.7158 30.5645 16.7292 31.1266 15.477C31.1932 15.3299 31.2967 15.3333 31.4208 15.2997C32.0237 15.1341 32.6429 14.977 33.1015 14.5217C33.9242 13.7046 34.1328 12.9003 34.0573 11.789Z" fill="#00C7B1"/>
<path d="M27.8564 9.44411C27.584 10.849 26.8882 11.9503 25.7674 12.7501C24.6466 13.5499 23.3026 13.7982 21.7355 13.4945C19.9391 13.1466 18.7439 12.4061 18.1493 11.2752C17.5554 10.1432 17.3937 8.87587 17.6661 7.47093C17.7987 6.7858 18.0526 6.17338 18.4279 5.63646C18.8032 5.09843 19.2618 4.65435 19.8048 4.30256C20.3468 3.94965 20.9452 3.70132 21.6002 3.55647C22.2556 3.41273 22.9419 3.40937 23.6606 3.54863C25.2283 3.85233 26.3854 4.56878 27.1332 5.69519C27.8804 6.82384 28.122 8.07273 27.8564 9.44411ZM21.9956 36.8236L24.9732 38.7727L24.2853 41.5361L9.34277 38.6429L9.6392 35.8034L13.5867 34.8403C13.7063 34.2195 13.882 33.3135 14.1135 32.1205C14.3445 30.9292 14.585 29.6373 14.8389 28.2457C15.09 26.8548 15.3439 25.4554 15.6001 24.0477C15.8557 22.6411 16.085 21.414 16.2875 20.3681L13.1549 18.6948L13.7438 15.6573L25.0252 16.164L25.7076 16.6013L21.9956 36.8236Z" fill="#FF0000"/>
<path d="M11.4283 8.39456C11.044 8.63841 10.6481 8.55396 10.3623 8.27207C9.68832 7.60876 9.32478 6.77877 9.22076 5.91914C9.28284 5.33804 9.48698 4.90012 9.80354 4.53378C10.1296 4.15458 10.7554 4.33635 11.1766 4.90347C11.7102 5.62496 11.9093 6.47619 12.0508 7.33358C12.1302 7.80954 11.8153 8.14847 11.4283 8.39456ZM18.468 18.6804C16.6934 17.6933 15.2829 16.3504 14.3081 14.5467C13.6582 13.3437 12.9193 12.1865 12.4848 10.8778C12.3724 10.5411 12.2851 10.1921 12.2309 9.84256C12.2001 9.65072 12.204 9.46783 12.4137 9.28718C13.2957 8.52319 13.6481 7.59254 13.2913 6.41132C12.9909 5.4141 12.6514 4.44597 11.9579 3.65514C11.2426 2.84025 9.76327 2.71777 8.85554 3.67303C8.23753 4.32293 7.89133 5.13222 7.83428 5.95997C7.78842 7.22061 8.63854 9.34815 10.5071 9.77321C10.9685 9.87835 11.0071 10.1854 11.0899 10.4919C11.2622 11.134 11.3187 11.5668 11.6285 12.3879C12.331 14.3085 13.4378 16.002 14.7913 17.5121C15.6375 18.4573 16.7315 19.0949 17.7963 19.7537C18.1146 19.9506 18.4406 19.6598 18.6045 19.3902C18.7337 19.1788 18.798 18.8639 18.468 18.6804Z" fill="#00C7B1"/>
<path d="M15.1875 37.51C14.8095 37.5441 14.4884 37.9199 14.4722 38.246C14.3777 40.1901 13.7054 41.8215 12.4946 43.3121C12.0259 43.8904 11.5477 44.1281 10.7485 43.5732C9.89946 42.9838 8.4962 41.8607 7.60022 41.0139C7.16229 40.6001 6.85412 40.3417 6.39103 40.4535C6.10859 40.5212 5.83174 40.7701 5.6125 41.3909C5.25176 42.4871 3.78642 45.9077 3.52579 46.8904C3.46986 47.1001 3.54649 47.302 3.64101 47.3915C3.76237 47.5067 3.95085 47.5498 4.16953 47.4816C5.4738 47.0727 6.52918 46.373 7.2322 45.2796C7.4274 44.9771 7.64496 44.4894 7.78366 44.1247C7.88042 43.8719 8.0566 43.3551 8.0566 43.3551C8.5443 43.7175 9.3575 44.3501 9.75795 44.6655C11.4481 45.9838 12.3368 45.627 13.4946 44.2852C14.9873 42.5553 15.8928 40.5156 16.0075 38.2153C16.0231 37.8842 15.7871 37.4557 15.1875 37.51Z" fill="#00C7B1"/>
<defs>
<radialGradient id="paint0_radial_476_9052" cx="0" cy="0" r="1" gradientUnits="userSpaceOnUse" gradientTransform="translate(53.1749 59.924) rotate(90) scale(2.5168 15.3805)">
<stop stop-color="#C4C4C4"/>
<stop offset="1" stop-color="#C4C4C4" stop-opacity="0"/>
</radialGradient>
<radialGradient id="paint1_radial_476_9052" cx="0" cy="0" r="1" gradientUnits="userSpaceOnUse" gradientTransform="translate(17.6601 60.2037) rotate(90) scale(2.79645 15.6601)">
<stop stop-color="#C4C4C4"/>
<stop offset="1" stop-color="#C4C4C4" stop-opacity="0"/>
</radialGradient>
</defs>
</svg>
