<svg width="46" height="90" viewBox="0 0 46 90" fill="none" xmlns="http://www.w3.org/2000/svg">
<rect x="0.130859" y="81.1475" width="45.7377" height="8.85245" fill="url(#paint0_radial_482_12108)"/>
<path d="M4.99056 47.0904C5.03248 48.0612 5.321 48.8106 5.80252 49.4542C6.29768 50.1185 7.34065 49.8803 8.0873 48.9826C9.03864 47.8398 9.45193 46.4468 9.77359 45.037C9.95099 44.254 9.47045 43.6578 8.86319 43.209C8.25983 42.7631 7.6009 42.863 7.10281 43.3009C5.93118 44.3321 5.25179 45.6727 4.99056 47.0904ZM3.08105 46.8393C3.13174 44.8996 4.62114 41.7172 7.48784 41.2456C8.19647 41.1289 8.28517 40.6623 8.43723 40.1986C8.75987 39.2298 8.97821 38.2204 9.50359 37.3336C11.069 34.6979 12.5165 31.9712 14.7097 29.7864C16.0811 28.4161 17.7976 27.5441 19.4693 26.6366C19.9693 26.3657 20.4362 26.8432 20.6585 27.2732C20.8329 27.6094 20.8992 28.0988 20.3836 28.3479C17.6027 29.6905 15.3403 31.6153 13.6959 34.2876C12.5974 36.0711 11.3683 37.7775 10.5865 39.7419C10.3848 40.248 10.219 40.775 10.1021 41.3059C10.0397 41.5985 10.027 41.8793 10.3272 42.1759C11.5895 43.4344 12.033 44.8956 11.38 46.6751C10.8302 48.1759 10.2239 49.6282 9.10005 50.774C7.94011 51.9554 5.6914 52.0019 4.40767 50.4478C3.53528 49.3899 3.08788 48.1146 3.08105 46.8393Z" fill="#FF0000"/>
<path d="M40.6112 23.7197C40.3837 24.3998 39.0349 24.7652 38.5215 24.2161C37.604 23.2282 36.6934 21.0551 37.5113 19.6158C37.8558 19.012 38.1867 18.3622 38.9607 18.286C39.4204 18.243 39.6644 18.328 39.8206 18.3934C40.5233 18.6817 40.7693 19.1497 40.9079 19.9383C41.1782 21.4772 41.106 22.2374 40.6112 23.7197ZM42.4646 19.1986C42.0547 17.7788 41.0172 16.8144 39.8069 16.4441C39.0768 16.2194 38.2472 16.4177 37.5094 16.8623C37.5523 16.4158 37.5747 15.9536 37.5074 15.55C37.4117 14.9863 37.2331 14.4547 36.9276 14.0326C36.5646 13.5333 35.9692 13.1952 35.3865 13.2968C35.2245 13.3242 35.0566 13.3945 34.9639 13.5411C34.8897 13.6613 34.8741 13.8147 34.8741 13.9613C34.8731 14.6247 35.0888 15.2628 35.2791 15.894C35.5885 16.9112 35.7769 17.7876 35.651 18.8498C35.6403 18.9406 35.6295 19.0364 35.6198 19.1302C35.5485 19.3325 35.4948 19.5386 35.4665 19.7467C35.1005 22.5149 36.0199 24.0597 37.8744 25.9387C38.1203 26.1879 38.256 26.3657 38.1916 26.7566C37.8139 29.0762 37.2732 31.0852 35.8794 32.9632C35.0712 34.0536 34.3051 34.4142 33.0977 33.5055C31.132 32.0232 30.1072 30.2488 28.7886 28.1411C28.5045 27.6897 28.1737 27.2246 27.7618 26.9363C27.5471 26.7878 27.022 27.1572 26.7594 27.3399C26.6384 27.4239 26.6843 27.9574 26.7926 28.2232C27.6603 30.3777 28.8296 31.734 30.2663 33.4459C30.8987 34.1973 31.6073 34.9096 32.3852 35.4695C33.6677 36.3899 34.9824 36.3752 36.3206 35.4138C37.5777 34.5099 38.3663 33.2172 38.8895 31.8043C39.4692 30.2448 39.7484 28.5583 40.1788 26.9324C40.2481 26.6627 40.3603 26.269 40.5448 26.1947C42.0244 25.5938 42.7086 24.4252 42.7487 22.9624C43.0903 21.2984 42.8697 20.6017 42.4646 19.1986Z" fill="#FF0000"/>
<path d="M26.2267 78.4157C26.283 81.3418 26.2774 81.3656 28.2966 81.7444C29.8097 82.0757 30.9271 82.5964 32.1964 83.4959C32.4054 83.6444 33.0045 84.1945 33.1873 84.4963C33.3326 84.7343 33.372 85.0208 33.2745 85.2407C33.1404 85.4682 32.6182 85.5548 32.263 85.5567C31.0461 85.5624 29.8293 85.5881 28.6097 85.5624C27.8082 85.5443 27.0067 85.5614 26.2042 85.5481C24.3734 85.4739 24.6996 84.5867 24.6987 83.8148C24.6978 82.3555 24.7671 80.8925 24.6809 79.439C24.5384 77.0793 24.6209 75.1632 24.5009 72.7902C24.469 71.9526 24.4784 71.3005 24.4756 70.5485C24.4756 70.3829 24.7343 70.0707 24.8515 70.0821C25.0718 70.1012 25.413 70.2668 25.4637 70.4419C25.8471 71.7926 25.8424 72.5142 25.953 73.9315C26.1077 75.6477 26.1752 77.5277 26.2267 78.4157Z" fill="#FF0000"/>
<path d="M20.2992 76.8173C20.2245 78.4043 20.1525 79.9913 20.1142 81.5793C20.1075 81.8665 20.3846 82.1848 20.6262 82.4795C21.0174 82.9547 21.513 83.8228 21.5245 84.5757C21.5341 85.1916 21.3529 85.4968 20.7336 85.5289C18.8208 85.6243 16.8831 85.5374 14.9905 85.5374C13.8601 85.5374 13.5322 85.083 13.4661 84.9413C13.352 84.6966 13.4181 84.3944 13.6128 84.0949C14.6751 82.4673 16.4095 81.806 18.096 81.3412C18.5006 81.1674 18.6156 80.9398 18.6319 80.5761C18.7642 77.3964 18.8927 74.3291 19.0308 71.1494C19.0385 70.9605 19.0471 70.7413 19.1458 70.5939C19.2849 70.3871 19.3079 70.3625 19.4939 70.1868C19.6559 70.0876 19.8036 70.0546 19.9234 70.1056C20.3481 70.2841 20.3903 71.3289 20.3989 71.6935C20.4037 71.9996 20.4047 72.3245 20.4066 72.6306C20.4066 72.8545 20.4037 73.1615 20.4028 73.4572C20.3999 73.9333 20.3376 76.0049 20.2992 76.8173Z" fill="#FF0000"/>
<path d="M22.262 14.2351C19.3116 14.2351 16.4644 12.2011 16.4644 8.13402V5.99249C16.4644 2.03295 19.3116 -9.15527e-05 22.262 -9.15527e-05C25.2133 -9.15527e-05 28.1636 2.03295 28.1636 5.99249V8.13402C28.1636 12.2011 25.2133 14.2351 22.262 14.2351ZM22.262 75.2457C19.3116 75.2457 16.3604 73.2117 16.3604 69.2522V28.3637C16.3604 24.4042 19.3116 22.3692 22.262 22.3692C25.2133 22.3692 28.1636 24.4042 28.1636 28.3637V69.2522C28.1636 73.2117 25.2133 75.2457 22.262 75.2457Z" fill="white"/>
<path d="M22.262 14.2351C19.3116 14.2351 16.4644 12.2011 16.4644 8.13402V5.99249C16.4644 2.03295 19.3116 -9.15527e-05 22.262 -9.15527e-05C25.2133 -9.15527e-05 28.1636 2.03295 28.1636 5.99249V8.13402C28.1636 12.2011 25.2133 14.2351 22.262 14.2351ZM22.262 75.2457C19.3116 75.2457 16.3604 73.2117 16.3604 69.2522V28.3637C16.3604 24.4042 19.3116 22.3692 22.262 22.3692C25.2133 22.3692 28.1636 24.4042 28.1636 28.3637V69.2522C28.1636 73.2117 25.2133 75.2457 22.262 75.2457Z" fill="#00C7B1"/>
<defs>
<radialGradient id="paint0_radial_482_12108" cx="0" cy="0" r="1" gradientUnits="userSpaceOnUse" gradientTransform="translate(22.9997 85.5737) rotate(90) scale(4.42622 22.8688)">
<stop stop-color="#C4C4C4"/>
<stop offset="1" stop-color="#C4C4C4" stop-opacity="0"/>
</radialGradient>
</defs>
</svg>
