<svg width="70" height="60" viewBox="0 0 70 60" fill="none" xmlns="http://www.w3.org/2000/svg">
<g clip-path="url(#clip0_476_9068)">
<rect x="8.29346" y="54.3223" width="40.2614" height="6.10021" fill="url(#paint0_radial_476_9068)"/>
<rect x="33.9146" y="54.9316" width="28.671" height="4.88017" fill="url(#paint1_radial_476_9068)"/>
<path d="M45.7381 19.7187C46.3963 19.9042 46.5342 19.9499 46.5678 20.5673C46.5983 21.1151 46.5556 21.0053 45.9968 21.0864C43.3517 21.5787 40.2839 23.083 38.0366 24.5184C37.2857 24.9972 32.6184 28.1224 31.8638 28.5976C31.3685 28.9093 31.0086 28.3658 30.7755 28.0052C30.5328 27.6295 30.5163 27.7204 31.0092 27.3659C31.5771 26.9585 33.5243 25.8683 34.1294 25.5267C35.3983 24.6642 37.1991 23.4795 39.2079 22.3967C42.4886 20.6289 44.9079 19.9603 45.7381 19.7187Z" fill="#00C7B1"/>
<path d="M47.8116 19.2819C47.9482 19.3887 48.18 19.6095 48.291 19.7962C48.4124 19.9975 48.4478 20.0682 48.3667 20.2519C48.2978 20.4123 47.933 20.4202 47.7268 20.3983C46.7556 20.2958 42.4403 19.5924 41.468 19.4906C39.5635 19.2307 36.3639 19.2185 34.0129 19.2252C33.6853 19.1953 33.5292 18.9977 33.373 18.6463C33.0558 17.9271 33.7829 17.9332 34.5766 17.9295C37.2143 17.9185 42.2293 18.1894 44.809 18.7232C45.2483 18.814 47.2912 19.2026 47.8116 19.2819Z" fill="#FF0000"/>
<path d="M58.7833 18.5224C58.6417 18.947 57.7987 19.1751 57.4778 18.8323C56.9044 18.2156 56.3346 16.8589 56.8458 15.9603C57.0606 15.5833 57.268 15.1777 57.7517 15.1301C58.0397 15.1032 58.1922 15.1563 58.2898 15.1972C58.729 15.3771 58.8815 15.6693 58.9687 16.1616C59.1371 17.1224 59.0926 17.597 58.7833 18.5224ZM59.9417 15.6998C59.6855 14.8135 59.0377 14.2114 58.28 13.9802C57.8243 13.8399 57.3064 13.9637 56.8452 14.2413C56.8715 13.9625 56.8855 13.674 56.8434 13.422C56.7842 13.07 56.672 12.7382 56.4811 12.4746C56.2541 12.1629 55.882 11.9519 55.5184 12.0153C55.416 12.0324 55.3116 12.0763 55.2543 12.1678C55.2067 12.2428 55.1982 12.3386 55.1982 12.4301C55.197 12.8443 55.3318 13.2427 55.4513 13.6367C55.6441 14.2718 55.7612 14.819 55.6825 15.4821C55.6764 15.5388 55.6691 15.5986 55.6636 15.6571C55.6197 15.7834 55.5862 15.9121 55.5679 16.0421C55.3391 17.7702 55.9131 18.7347 57.0734 19.9078C57.2259 20.0633 57.3119 20.1743 57.271 20.4183C57.035 21.8665 56.697 23.1207 55.8259 24.2932C55.3208 24.974 54.8413 25.1991 54.0867 24.6318C52.8594 23.7064 52.2188 22.5986 51.3941 21.2827C51.2166 21.0009 51.0104 20.7105 50.7517 20.5306C50.6181 20.4379 50.2893 20.6684 50.1259 20.7825C50.0502 20.835 50.0795 21.1681 50.146 21.334C50.6895 22.6791 51.4191 23.5258 52.3177 24.5945C52.7123 25.0636 53.1552 25.5084 53.642 25.8579C54.4436 26.4325 55.2653 26.4234 56.1016 25.8231C56.8879 25.2589 57.3802 24.4518 57.7072 23.5697C58.0689 22.5961 58.2434 21.5432 58.5124 20.5281C58.5557 20.3598 58.6259 20.1139 58.7418 20.0676C59.6666 19.6924 60.0936 18.9628 60.1186 18.0496C60.3327 17.0108 60.1943 16.5758 59.9417 15.6998Z" fill="#00C7B1"/>
<path d="M50.0755 52.5505C50.1115 54.4257 50.1085 54.4409 51.4231 54.6837C52.407 54.896 53.1342 55.2297 53.9601 55.8061C54.0962 55.9013 54.4866 56.2539 54.6055 56.4473C54.6995 56.5998 54.7257 56.7834 54.6617 56.9243C54.5744 57.0701 54.2353 57.1256 54.0041 57.1268C53.2116 57.1305 52.4192 57.147 51.6268 57.1305C51.1046 57.1189 50.5831 57.1299 50.0615 57.1214C48.8689 57.0738 49.0818 56.5052 49.0818 56.0105C49.0812 55.0753 49.1263 54.1377 49.069 53.2062C48.9763 51.694 49.0312 50.466 48.9531 48.9452C48.9323 48.4084 48.9372 47.9906 48.9366 47.5086C48.936 47.4025 49.105 47.2024 49.1812 47.2097C49.3246 47.2219 49.5466 47.3281 49.5796 47.4403C49.8285 48.3059 49.8254 48.7683 49.8974 49.6767C49.9987 50.7765 50.0414 51.9813 50.0755 52.5505Z" fill="#00C7B1"/>
<path d="M46.5132 51.5047C46.4656 52.5295 46.4204 53.5544 46.396 54.5798C46.3918 54.7652 46.5675 54.9708 46.7218 55.1612C46.9695 55.468 47.2861 56.0286 47.2922 56.5148C47.2983 56.9125 47.1842 57.1096 46.7895 57.1303C45.5719 57.1919 44.3397 57.1358 43.1355 57.1358C42.4157 57.1358 42.2076 56.8424 42.1649 56.7509C42.0923 56.5929 42.1344 56.3977 42.2595 56.2043C42.9354 55.1532 44.0377 54.7262 45.1107 54.4261C45.3688 54.3138 45.4426 54.1668 45.4529 53.932C45.5365 51.8786 45.6189 49.8979 45.7061 47.8446C45.7104 47.7226 45.7171 47.581 45.7793 47.4859C45.8672 47.3523 45.8818 47.3364 46.0007 47.223C46.1032 47.1589 46.1984 47.1375 46.2746 47.1705C46.5449 47.2858 46.5717 47.9605 46.576 48.1959C46.5803 48.3936 46.5803 48.6034 46.5809 48.8011C46.5815 48.9456 46.5803 49.1439 46.5784 49.3348C46.5772 49.6423 46.5376 50.9801 46.5132 51.5047Z" fill="#00C7B1"/>
<path d="M47.7265 12.7125C45.7885 12.7125 43.9188 11.4431 43.9188 8.9048V7.56824C43.9188 5.09705 45.7885 3.82821 47.7265 3.82821C49.664 3.82821 51.602 5.09705 51.602 7.56824V8.9048C51.602 11.4431 49.664 12.7125 47.7265 12.7125ZM47.7265 50.79C45.7885 50.79 43.8511 49.5206 43.8511 47.0494V21.5304C43.8511 19.0592 45.7885 17.7891 47.7265 17.7891C49.664 17.7891 51.602 19.0592 51.602 21.5304V47.0494C51.602 49.5206 49.664 50.79 47.7265 50.79Z" fill="#FF0000"/>
<path d="M10.0495 11.6252C9.52488 10.9322 9.21743 10.155 9.2156 9.27112C9.21499 8.73857 9.3803 8.57875 9.85612 8.78433C10.5357 9.07775 11.2085 9.39984 11.8405 9.78293C12.342 10.0873 12.8214 10.2124 13.3881 10.0477C13.6492 9.97143 14.0055 9.6713 14.3294 9.90554C14.5484 10.0568 14.4014 10.565 14.2916 10.8431C13.9799 11.6331 13.1368 12.1535 12.3853 12.4725C11.735 12.7476 10.568 12.3102 10.0495 11.6252ZM20.7914 19.1596C20.4894 18.8118 20.0831 18.7161 19.7934 18.9595C19.5725 19.3871 16.3681 20.8389 15.2932 21.0445C14.3678 21.2952 13.8017 21.3123 13.235 20.0545C12.8861 19.3438 12.6921 17.0355 12.672 16.0234C12.6567 15.3597 12.5793 14.8571 12.5402 14.1928C12.5213 13.8725 12.6561 13.6987 12.9654 13.5571C14.0793 13.0465 14.9461 12.3621 15.4116 11.1652C15.7001 10.4235 15.6836 9.69509 15.0895 9.12167C14.5844 8.63426 13.939 8.56838 13.2777 8.81788C12.9221 8.95147 12.6037 8.91243 12.2901 8.68245C11.6179 8.19017 10.9322 7.74851 10.0873 7.55697C9.34553 7.38921 8.7105 7.56367 8.2902 8.2164C7.81072 8.95757 8.02667 9.74877 8.22066 10.4802C8.58423 11.8497 9.35285 12.7635 10.6376 13.3497C10.9688 13.4992 11.0957 13.6743 11.1244 13.9128C11.1353 14.0079 11.1183 14.6088 11.1805 15.8105C11.203 16.0149 11.2207 16.2266 11.2354 16.4444C11.2958 17.3155 11.3208 18.275 11.4727 19.1931C11.6691 20.3766 12.1467 21.4532 13.1344 22.2182C14.0915 22.9106 15.4525 22.5677 16.2156 22.2823C17.5686 21.7765 19.5902 20.9573 20.6651 19.9331C20.9506 19.6616 21.0738 19.4841 20.7914 19.1596Z" fill="#FF0000"/>
<path d="M30.1881 46.4821C30.1826 46.2319 30.4333 45.9501 30.8231 45.8861C31.2788 45.8129 31.4935 46.0465 31.56 46.4101C31.7003 47.1775 31.8443 47.9473 31.9291 48.719C32.1365 50.6137 32.1554 54.4532 32.1554 54.4532C32.1554 54.4532 33.7597 54.6551 34.7437 54.987C35.7204 55.3164 36.2419 55.6013 36.9014 56.1588C37.4211 56.598 37.1673 57.2392 37.0441 57.2501C36.6641 57.2843 35.86 57.291 35.4568 57.291C34.1941 57.2904 32.4208 57.2361 31.1604 57.2733C30.8347 57.2843 30.7029 57.2556 30.6523 57.1586C30.5937 57.0446 30.6352 55.7635 30.6486 55.4042C30.7347 53.174 30.7353 51.095 30.5224 48.8288C30.4528 48.0834 30.3119 47.3446 30.1881 46.4821Z" fill="#FF0000"/>
<path d="M27.1862 46.4821C27.1917 46.2319 26.941 45.9501 26.5512 45.8861C26.0955 45.8129 25.8807 46.0465 25.8149 46.4101C25.6739 47.1775 25.4903 47.9455 25.4452 48.719C25.3787 49.8695 25.3329 50.7748 25.286 51.8045C25.2542 52.5054 25.2189 54.4532 25.2189 54.4532L24.3825 54.5331V54.5325C23.8439 54.5868 23.1186 54.8131 22.6312 54.987C21.6594 55.3335 21.1329 55.6013 20.4729 56.1588C19.9532 56.598 20.2069 57.2392 20.3302 57.2501C20.7102 57.2843 21.5142 57.291 21.9174 57.291C23.1802 57.2904 24.9535 57.2361 26.2138 57.2733C26.6567 57.2874 26.7415 57.2306 26.7482 57.0275C26.7531 56.9049 26.747 56.107 26.7445 55.9185C26.7433 55.7471 26.7372 55.575 26.7256 55.4042C26.5695 53.1496 26.5835 51.0755 26.8519 48.8288C26.9416 48.0846 27.0623 47.3446 27.1862 46.4821Z" fill="#FF0000"/>
<path d="M28.8381 0.421631C33.448 0.421631 36.1864 4.16167 36.1864 7.23556C36.1864 10.9091 33.5804 13.9818 28.8381 13.9818C24.6308 13.9818 21.6228 10.4412 21.6228 7.23556C21.6228 4.16167 24.1623 0.421631 28.8381 0.421631ZM38.4581 50.3896H19.7524V41.6377H22.5585V25.6728H19.7524V16.9886H35.2506V41.6377H38.4581V50.3896Z" fill="white"/>
<path d="M28.8381 0.421631C33.448 0.421631 36.1864 4.16167 36.1864 7.23556C36.1864 10.9091 33.5804 13.9818 28.8381 13.9818C24.6308 13.9818 21.6228 10.4412 21.6228 7.23556C21.6228 4.16167 24.1623 0.421631 28.8381 0.421631ZM38.4581 50.3896H19.7524V41.6377H22.5585V25.6728H19.7524V16.9886H35.2506V41.6377H38.4581V50.3896Z" fill="#ACA49C"/>
</g>
<defs>
<radialGradient id="paint0_radial_476_9068" cx="0" cy="0" r="1" gradientUnits="userSpaceOnUse" gradientTransform="translate(28.4241 57.3724) rotate(90) scale(3.0501 20.1307)">
<stop stop-color="#C4C4C4"/>
<stop offset="1" stop-color="#C4C4C4" stop-opacity="0"/>
</radialGradient>
<radialGradient id="paint1_radial_476_9068" cx="0" cy="0" r="1" gradientUnits="userSpaceOnUse" gradientTransform="translate(48.25 57.3717) rotate(90) scale(2.44008 14.3355)">
<stop stop-color="#C4C4C4"/>
<stop offset="1" stop-color="#C4C4C4" stop-opacity="0"/>
</radialGradient>
<clipPath id="clip0_476_9068">
<rect width="70" height="59.1549" fill="white" transform="translate(0 0.422363)"/>
</clipPath>
</defs>
</svg>
