<svg width="208" height="134" viewBox="0 0 208 134" fill="none" xmlns="http://www.w3.org/2000/svg">
<path d="M136.437 2.56085C135.62 1.76579 134.663 1.13407 133.596 0.67869C132.537 0.227638 131.404 -5.14984e-05 130.232 -5.14984e-05C129.008 -5.14984e-05 127.851 0.227638 126.792 0.67869C125.733 1.12912 124.809 1.75651 124.045 2.54291C123.274 3.33426 122.655 4.27596 122.201 5.34574C121.749 6.405 121.521 7.56264 121.521 8.78524C121.521 10.0097 121.749 11.1667 122.2 12.2235C122.655 13.2939 123.274 14.2368 124.044 15.0263C124.808 15.814 125.732 16.4407 126.791 16.8906C128.861 17.7753 131.436 17.8131 133.595 16.8924C134.666 16.437 135.622 15.8041 136.437 15.0096C137.252 14.217 137.907 13.2753 138.383 12.2105C138.853 11.1574 139.091 10.0054 139.091 8.78524C139.091 7.56635 138.853 6.4149 138.383 5.35997C137.907 4.29515 137.252 3.35282 136.437 2.56085Z" fill="white"/>
<path d="M123.056 54.1678C123.362 55.2153 123.889 56.1081 124.624 56.8202C125.369 57.5429 126.395 58.1016 127.673 58.4821C130.107 59.2073 133.814 59.3217 138.51 58.5694C140.386 58.2668 142.114 57.8275 143.655 57.2571V48.3171H138.643V22.7371H118.902V31.7068H122.568V50.297C122.568 51.7541 122.733 53.0565 123.056 54.1678Z" fill="white"/>
<path d="M25.9376 59.4486C20.6735 59.4486 16.5249 57.9581 13.4919 54.9777C10.4577 51.9967 8.94059 47.9304 8.94059 42.7746V28.839H1.53011C0.50983 28.839 0 28.3298 0 27.3095V20.6229C0 19.6039 0.50983 19.0922 1.53011 19.0922H8.94059V8.86404C8.94059 7.84376 9.45042 7.33269 10.4713 7.33269H19.493C20.512 7.33269 21.0237 7.84376 21.0237 8.86404V19.0922H33.6698C34.6895 19.0922 35.2006 19.6039 35.2006 20.6229V27.3095C35.2006 28.3298 34.6895 28.839 33.6698 28.839H21.0237V42.3724C21.0237 44.4129 21.6276 46.0241 22.8353 47.2053C24.0437 48.3864 25.6672 48.9767 27.709 48.9767C29.8034 48.9767 31.8168 48.7347 33.7509 48.2515C34.7699 48.0907 35.3614 48.4928 35.5229 49.4599L36.5698 56.3878C36.623 57.2466 36.2202 57.8368 35.3614 58.1598C31.9238 59.018 28.7825 59.4486 25.9376 59.4486Z" fill="white"/>
<path d="M92.2286 56.7894C92.2812 57.7045 91.8791 58.2663 91.0203 58.4823C88.765 59.1264 86.7232 59.4487 84.898 59.4487C79.6902 59.4487 76.091 57.8908 74.1049 54.7767C70.7223 57.8908 66.1561 59.4487 60.4119 59.4487C55.2022 59.4487 50.9992 57.8252 47.8047 54.575C44.6096 51.3273 43.0127 47.0179 43.0127 41.6474V20.6231C43.0127 19.604 43.5225 19.0923 44.5428 19.0923H53.5651C54.5835 19.0923 55.0946 19.604 55.0946 20.6231V40.0362C55.0946 42.7753 55.8605 44.9767 57.3906 46.6411C58.9208 48.3067 60.9749 49.1377 63.5519 49.1377C66.2366 49.1377 68.3854 48.3463 69.9972 46.7618C71.6077 45.1778 72.4133 43.0698 72.4133 40.4384V20.6231C72.4133 19.604 72.9231 19.0923 73.944 19.0923H83.0467C84.0658 19.0923 84.5769 19.604 84.5769 20.6231V45.9166C84.5769 48.011 85.4629 49.0572 87.2349 49.0572C88.2014 49.0572 89.0335 48.9768 89.7315 48.8159C90.7505 48.7089 91.3426 49.1377 91.5035 50.1041L92.2286 56.7894Z" fill="white"/>
<path d="M99.1672 27.7894C99.1672 26.9034 99.8917 26.2593 100.698 26.2593H109.56C110.365 26.2593 111.091 26.9034 111.091 27.7894V56.9512C111.091 57.7574 110.365 58.4825 109.56 58.4825H100.698C99.8917 58.4825 99.1672 57.7574 99.1672 56.9512V27.7894ZM98.6846 10.1483C98.6846 6.60299 101.503 3.70301 105.048 3.70301C108.593 3.70301 111.493 6.60299 111.493 10.1483C111.493 13.6923 108.593 16.5119 105.048 16.5119C101.503 16.5119 98.6846 13.6923 98.6846 10.1483Z" fill="white"/>
<path d="M163.624 46.5203C165.584 48.4817 168.148 49.4611 171.317 49.4611C174.485 49.4611 177.048 48.4817 179.01 46.5203C180.969 44.5602 181.949 41.9436 181.949 38.6662C181.949 35.3919 180.969 32.7605 179.01 30.7731C177.048 28.7864 174.485 27.7933 171.317 27.7933C168.148 27.7933 165.584 28.7864 163.624 30.7731C161.663 32.7605 160.684 35.3919 160.684 38.6662C160.684 41.9436 161.663 44.5602 163.624 46.5203ZM187.387 53.7303C183.331 57.5435 177.974 59.4492 171.317 59.4492C164.658 59.4492 159.301 57.5435 155.247 53.7303C151.192 49.9177 149.166 44.8962 149.166 38.6662C149.166 32.3837 151.192 27.3373 155.247 23.5241C159.301 19.7109 164.658 17.804 171.317 17.804C177.974 17.804 183.331 19.7109 187.387 23.5241C191.44 27.3373 193.469 32.3837 193.469 38.6662C193.469 44.8962 191.44 49.9177 187.387 53.7303Z" fill="white"/>
<path d="M201.384 23.0311H202.42C202.979 23.0311 203.259 22.7966 203.259 22.3257C203.259 22.1339 203.181 21.9762 203.027 21.8518C202.873 21.7262 202.67 21.6637 202.42 21.6637H201.384V23.0311ZM200.612 25.3692C200.391 25.3692 200.281 25.2585 200.281 25.0388V21.0017C200.281 20.7814 200.391 20.6713 200.612 20.6713H202.42C203.009 20.6713 203.486 20.8253 203.853 21.1347C204.222 21.4428 204.405 21.8481 204.405 22.348C204.405 23.0682 204.068 23.5465 203.391 23.781L204.274 24.9726C204.347 25.0754 204.365 25.1675 204.329 25.248C204.29 25.329 204.207 25.3692 204.075 25.3692H203.457C203.28 25.3692 203.148 25.303 203.06 25.1713L202.177 23.9579H201.384V25.0388C201.384 25.2585 201.273 25.3692 201.052 25.3692H200.612ZM199.068 26.0424C199.92 26.8437 200.942 27.2446 202.133 27.2446C203.324 27.2446 204.347 26.8437 205.2 26.0424C206.052 25.2406 206.478 24.2815 206.478 23.1635C206.478 22.0467 206.052 21.0908 205.2 20.2957C204.347 19.5025 203.324 19.1059 202.133 19.1059C200.942 19.1059 199.92 19.5025 199.068 20.2957C198.214 21.0908 197.788 22.0467 197.788 23.1635C197.788 24.2815 198.214 25.2406 199.068 26.0424ZM206.302 26.9798C205.169 28.0236 203.78 28.5452 202.133 28.5452C200.487 28.5452 199.097 28.0236 197.964 26.9798C196.833 25.9354 196.267 24.6633 196.267 23.1635C196.267 21.6785 196.833 20.4145 197.964 19.3701C199.097 18.3263 200.487 17.8041 202.133 17.8041C203.78 17.8041 205.169 18.3263 206.302 19.3701C207.435 20.4145 208 21.6785 208 23.1635C208 24.6633 207.435 25.9354 206.302 26.9798Z" fill="white"/>
<path d="M193.469 120.619C193.469 121.407 193.373 122.365 193.229 122.867C192.607 122.795 191.986 122.771 191.244 122.771C190.598 122.771 189.952 122.819 189.307 122.915V133.151H186.676V121.193C187.8 120.81 189.69 120.523 191.172 120.523C191.986 120.523 192.894 120.547 193.469 120.619ZM175.818 125.833H181.749C181.749 123.871 180.696 122.723 178.879 122.723C177.014 122.723 176.033 123.799 175.818 125.833ZM184.26 128.032H175.866C176.201 130.161 177.444 131.189 179.788 131.189C181.223 131.189 182.682 130.878 183.996 130.281C183.901 130.974 183.758 131.883 183.591 132.672C182.395 133.223 181.127 133.438 179.716 133.438C175.315 133.438 173.187 130.998 173.187 126.909C173.187 123.345 174.837 120.523 179.023 120.523C182.778 120.523 184.404 122.986 184.404 126C184.404 126.741 184.355 127.339 184.26 128.032ZM168.427 130.376V123.01C167.733 122.867 167.016 122.771 166.323 122.771C163.715 122.771 162.472 124.397 162.472 127.124C162.472 129.563 163.452 131.285 165.796 131.285C166.849 131.285 167.71 130.927 168.427 130.376ZM171.034 116.409V133.151H168.619L168.475 131.62C167.805 132.744 166.777 133.438 165.055 133.438C161.898 133.438 159.793 131.142 159.793 127.124C159.793 122.915 162.042 120.523 166.466 120.523C167.16 120.523 167.805 120.595 168.427 120.714V116.768C169.241 116.481 170.174 116.409 171.034 116.409ZM157.688 125.115V133.151H155.057V125.57C155.057 123.68 154.436 122.771 151.805 122.771C151.183 122.771 150.442 122.843 149.724 122.962V133.151H147.093V121.193C148.767 120.786 150.609 120.523 151.877 120.523C156.278 120.523 157.688 122.221 157.688 125.115ZM141.592 130.425V122.915C141.043 122.819 140.444 122.771 139.703 122.771C136.976 122.771 135.709 124.445 135.709 127.124C135.709 129.563 136.689 131.285 139.034 131.285C140.061 131.285 140.899 130.951 141.592 130.425ZM144.223 121.193V133.151H141.807L141.664 131.716C140.994 132.768 139.965 133.438 138.291 133.438C135.135 133.438 133.03 131.142 133.03 127.124C133.03 122.915 135.278 120.523 139.703 120.523C141.425 120.523 142.836 120.714 144.223 121.193ZM130.112 131.189C130.877 131.189 131.595 131.047 132.169 130.831C132.097 131.548 132.001 132.361 131.858 133.055C131.141 133.342 130.375 133.438 129.633 133.438C127.074 133.438 125.448 132.265 125.448 129.348V116.792C126.261 116.529 127.266 116.409 128.079 116.409V120.93H132.24C132.192 121.742 132.121 122.485 132.001 123.178H128.079V129.037C128.079 130.592 128.844 131.189 130.112 131.189ZM122.817 125.115V133.151H120.186V125.57C120.186 123.68 119.564 122.771 116.933 122.771C116.312 122.771 115.57 122.843 114.853 122.962V133.151H112.222V121.193C113.896 120.786 115.737 120.523 117.005 120.523C121.406 120.523 122.817 122.221 122.817 125.115ZM106.721 130.425V122.915C106.171 122.819 105.572 122.771 104.831 122.771C102.105 122.771 100.837 124.445 100.837 127.124C100.837 129.563 101.818 131.285 104.162 131.285C105.19 131.285 106.027 130.951 106.721 130.425ZM109.352 121.193V133.151H106.936L106.792 131.716C106.122 132.768 105.094 133.438 103.42 133.438C100.263 133.438 98.1588 131.142 98.1588 127.124C98.1588 122.915 100.407 120.523 104.831 120.523C106.553 120.523 107.964 120.714 109.352 121.193ZM85.4588 132.624C85.5065 131.644 85.65 130.974 85.913 130.209C87.2525 130.831 88.9744 131.142 90.2898 131.142C92.5135 131.142 93.7578 130.425 93.7578 129.013C93.7578 127.626 92.8489 126.98 90.601 126L89.3809 125.474C87.1331 124.493 85.6024 123.225 85.6024 120.69C85.6024 117.964 87.4913 116.218 91.3658 116.218C92.9206 116.218 94.3796 116.433 95.7426 116.912C95.6709 117.868 95.5038 118.61 95.2644 119.303C93.9725 118.825 92.4424 118.61 91.3417 118.61C89.2615 118.61 88.3049 119.423 88.3049 120.69C88.3049 121.934 89.2374 122.652 90.9116 123.369L92.2029 123.919C95.2402 125.211 96.508 126.574 96.508 128.893C96.508 131.644 94.4272 133.533 90.3616 133.533C88.4002 133.533 86.7977 133.246 85.4588 132.624ZM73.4376 120.834C73.3998 119.961 73.1554 119.095 72.7031 118.311L68.7167 111.406C68.4123 110.88 68.2025 110.316 68.0862 109.736L67.9192 110.025C66.9323 111.735 66.9323 113.84 67.9192 115.549L71.1087 121.073C72.0956 122.783 72.0956 124.889 71.1087 126.598L70.9423 126.887C70.8253 126.308 70.6156 125.743 70.3118 125.218L67.3914 120.16L65.5272 116.93C65.2234 116.404 65.013 115.84 64.8961 115.261L64.7296 115.55C63.7465 117.253 63.7434 119.35 64.7203 121.057H64.7197L67.9192 126.598C68.906 128.307 68.906 130.413 67.9192 132.123L67.7527 132.411C67.6358 131.832 67.426 131.268 67.1216 130.742L63.1352 123.836C62.6006 122.91 62.3562 121.868 62.4007 120.834C58.1328 121.949 55.187 124.317 55.187 127.058C55.187 130.872 60.8873 133.964 67.9192 133.964C74.951 133.964 80.6519 130.872 80.6519 127.058C80.6519 124.317 77.7062 121.948 73.4376 120.834Z" fill="white"/>
<path d="M6.47421 87.7149V92.0955H4.79004V80.662H13.3377V82.2126H6.47421V86.16H12.4276V87.7149H6.47421Z" fill="white"/>
<path d="M15.6938 80.6636H17.4424V92.0958H15.6938V80.6636Z" fill="white"/>
<path d="M22.5709 83.4557V92.0956H20.8242V80.6652H22.3648L29.6281 89.3404V80.6652H31.3772V92.0956H29.8496L22.5709 83.4557Z" fill="white"/>
<path d="M36.6601 88.2514H41.4342L39.1139 82.4156L36.6601 88.2514ZM38.1116 80.6634H40.1478L44.6831 92.0956H42.9012L41.8908 89.5792H36.188L35.1485 92.0956H33.3647L38.1116 80.6634Z" fill="white"/>
<path d="M48.5018 83.4557V92.0956H46.7471V80.6652H48.2982L55.5571 89.3404V80.6652H57.3081V92.0956H55.7786L48.5018 83.4557Z" fill="white"/>
<path d="M66.3373 82.1946H59.9199V80.6633H68.5796V81.9261L62.1863 90.574H68.5796V92.0955H59.9199V90.8388L66.3373 82.1946Z" fill="white"/>
<path d="M73.0698 88.2514H77.8458L75.5194 82.4156L73.0698 88.2514ZM74.517 80.6634H76.5496L81.0885 92.0956H79.301L78.3006 89.5792H72.5996L71.5564 92.0956H69.7764L74.517 80.6634Z" fill="white"/>
<path d="M82.783 89.5953C83.5625 90.0804 84.925 90.6564 86.4192 90.6564C88.0817 90.6564 89.2233 90.0167 89.2233 88.8862C89.2233 88.0757 88.6361 87.6247 87.2477 87.2918L85.1898 86.7832C83.2804 86.3309 82.3325 85.3063 82.3325 83.8084C82.3325 82.0128 83.7284 80.5124 86.7539 80.5124C88.3558 80.5124 89.8971 80.9715 90.7509 81.4195L90.2535 83.0387C89.4473 82.5449 87.9605 82.1267 86.6877 82.1267C84.9077 82.1267 84.1497 82.798 84.1497 83.6574C84.1497 84.4494 84.6843 84.8367 85.7318 85.1225L87.9487 85.6899C89.9695 86.2313 91.0429 87.1371 91.0429 88.7569C91.0429 90.8736 89.0865 92.2676 86.3901 92.2676C84.7394 92.2676 83.0886 91.6965 82.3678 91.2733L82.783 89.5953Z" fill="white"/>
<path d="M99.3771 82.1946V90.574H102.226C104.664 90.574 106.385 89.0878 106.385 86.3951C106.385 83.6653 104.664 82.2125 102.226 82.1946H99.3771ZM97.6348 80.6633H102.295C105.677 80.6812 108.193 82.6865 108.193 86.3951C108.193 90.0803 105.677 92.0955 102.295 92.0955H97.6348V80.6633Z" fill="white"/>
<path d="M110.872 92.0955V80.6651H119.748V82.2144H112.552V85.42H118.518V86.9687H112.552V90.5505H119.748V92.0955H110.872Z" fill="white"/>
<path d="M130.493 82.2128V92.0957H128.741V82.2128H124.642V80.6616H134.39V82.2128H130.493Z" fill="white"/>
<path d="M142.06 79.4437H140.547L141.912 76.9997H143.676L142.06 79.4437ZM138.078 87.2631C138.078 89.3086 139.123 90.6544 141.357 90.6544C143.62 90.6544 144.693 89.2072 144.693 87.2334V80.6619H146.433V87.3708C146.433 90.014 144.702 92.2816 141.357 92.2816C138.044 92.2816 136.329 90.233 136.329 87.3708V80.6619H138.078V87.2631Z" fill="white"/>
<path d="M155.028 88.2514H159.803L157.482 82.4156L155.028 88.2514ZM156.477 80.6634H158.508L163.047 92.0956H161.263L160.257 89.5792H154.558L153.513 92.0956H151.734L156.477 80.6634Z" fill="white"/>
<path d="M172.685 82.2128V92.0957H170.937V82.2128H166.834V80.6616H176.584V82.2128H172.685Z" fill="white"/>
<path d="M184.257 79.4437H182.743L184.106 76.9997H185.868L184.257 79.4437ZM180.266 87.2631C180.266 89.3086 181.304 90.6544 183.548 90.6544C185.812 90.6544 186.876 89.2072 186.876 87.2334V80.6619H188.626V87.3708C188.626 90.014 186.891 92.2816 183.548 92.2816C180.236 92.2816 178.525 90.233 178.525 87.3708V80.6619H180.266V87.2631Z" fill="white"/>
</svg>
